<?xml version="1.0" encoding="UTF-8" standalone="no"?>
<!-- Generator: Adobe Illustrator 16.0.0, SVG Export Plug-In . SVG Version: 6.00 Build 0)  -->

<svg
   xmlns:dc="http://purl.org/dc/elements/1.1/"
   xmlns:cc="http://creativecommons.org/ns#"
   xmlns:rdf="http://www.w3.org/1999/02/22-rdf-syntax-ns#"
   xmlns:svg="http://www.w3.org/2000/svg"
   xmlns="http://www.w3.org/2000/svg"
   xmlns:sodipodi="http://sodipodi.sourceforge.net/DTD/sodipodi-0.dtd"
   xmlns:inkscape="http://www.inkscape.org/namespaces/inkscape"
   version="1.1"
   id="Camada_1"
   x="0px"
   y="0px"
   width="100px"
   height="82.382px"
   viewBox="0 8.808 100 82.382"
   enable-background="new 0 8.808 100 82.382"
   xml:space="preserve"
   sodipodi:docname="game.svg"
   inkscape:version="0.92.5 (2060ec1f9f, 2020-04-08)"><metadata
   id="metadata21"><rdf:RDF><cc:Work
       rdf:about=""><dc:format>image/svg+xml</dc:format><dc:type
         rdf:resource="http://purl.org/dc/dcmitype/StillImage" /></cc:Work></rdf:RDF></metadata><defs
   id="defs19" /><sodipodi:namedview
   pagecolor="#ffffff"
   bordercolor="#666666"
   borderopacity="1"
   objecttolerance="10"
   gridtolerance="10"
   guidetolerance="10"
   inkscape:pageopacity="0"
   inkscape:pageshadow="2"
   inkscape:window-width="640"
   inkscape:window-height="480"
   id="namedview17"
   showgrid="false"
   inkscape:zoom="2.8647033"
   inkscape:cx="58.901445"
   inkscape:cy="41.191002"
   inkscape:current-layer="Camada_1" />
<path
   style="fill:#ffffff;fill-opacity:1;stroke-width:0.99999994"
   d="m 91.045317,10.821052 c 0,5.624978 -4.576464,10.200492 -10.200491,10.200492 h -17.47886 c -9.21454,0 -16.711638,7.497096 -16.711638,16.711637 h 6.50929 c -9.51e-4,-5.624026 4.57832,-10.202347 10.202348,-10.202347 h 17.48072 c 9.21359,0 16.709781,-7.49524 16.709781,-16.709782 z M 27.263921,39.540698 c -3.347976,0 -6.600036,0.656027 -9.66362,1.952415 -2.956114,1.250739 -5.608826,3.038711 -7.8858292,5.316669 -2.2779547,2.277002 -4.0649782,4.931575 -5.3166645,7.887682 -1.2954377,3.06359 -1.9542732,6.313835 -1.9542732,9.659908 0,3.349877 0.6569328,6.600035 1.9542732,9.663624 1.2507351,2.956109 3.0387098,5.607828 5.3166645,7.887684 2.2770032,2.277003 4.9297152,4.064073 7.8858292,5.314807 3.064535,1.294486 6.315644,1.954272 9.66362,1.954272 3.912946,0 7.812026,-0.935583 11.277945,-2.708489 2.327413,-1.188911 4.469861,-2.757814 6.319808,-4.61632 H 54.95256 c 1.850898,1.858506 3.995203,3.427409 6.321666,4.61632 3.466868,1.771954 7.366897,2.708489 11.277941,2.708489 3.348927,0 6.599085,-0.657884 9.663623,-1.954272 2.955159,-1.249783 5.606967,-3.037804 7.883971,-5.314807 2.277954,-2.278905 4.068737,-4.931575 5.318521,-7.887684 1.29544,-3.063589 1.952415,-6.314698 1.952416,-9.663624 0,-3.347975 -0.655074,-6.596318 -1.952416,-9.659908 -1.246931,-2.955156 -3.036851,-5.609729 -5.314807,-7.887682 -2.277004,-2.277958 -4.930668,-4.064979 -7.885828,-5.316669 -3.065488,-1.295437 -6.314694,-1.952415 -9.66362,-1.952415 z m 0,6.509294 h 45.290106 c 10.113356,0 18.311096,8.197782 18.311096,18.309236 -0.002,10.112411 -8.19774,18.309242 -18.311096,18.309241 -5.988311,0 -11.307398,-2.87547 -14.647765,-7.322953 H 41.909829 c -3.340367,4.447483 -8.656644,7.322953 -14.645908,7.322953 -10.111455,0 -18.3092381,-8.195879 -18.3092381,-18.309241 0,-10.111454 8.1987341,-18.309236 18.3092381,-18.309236 z m -1.829806,7.32481 c -1.011053,0 -1.831666,0.820614 -1.831666,1.831667 v 5.491283 H 18.11116 c -1.011053,0 -1.829811,0.819667 -1.829811,1.83167 v 3.661474 c 0,1.011051 0.819709,1.831668 1.829811,1.831668 h 5.491289 v 5.491284 c 0,1.012006 0.820613,1.831668 1.831666,1.831668 h 3.661476 c 1.011047,0 1.829805,-0.818713 1.829805,-1.831668 v -5.491284 h 5.493144 c 1.011053,0 1.829811,-0.819666 1.829811,-1.831668 v -3.661474 c 0,-1.012003 -0.819709,-1.83167 -1.829811,-1.83167 h -5.493144 v -5.491283 c 0,-1.010102 -0.819709,-1.831667 -1.829805,-1.831667 z m 47.119912,0 a 3.6608967,3.6608967 0 0 0 -3.661478,3.661477 3.6608967,3.6608967 0 0 0 3.661478,3.661473 3.6608967,3.6608967 0 0 0 3.661476,-3.661473 3.6608967,3.6608967 0 0 0 -3.661476,-3.661477 z m -7.321097,7.32295 a 3.6618476,3.6618476 0 0 0 -3.663335,3.661476 3.6618476,3.6618476 0 0 0 3.663335,3.661477 3.6618476,3.6618476 0 0 0 3.661476,-3.661477 3.6618476,3.6618476 0 0 0 -3.661476,-3.661476 z m 14.645906,0 a 3.6618476,3.6618476 0 0 0 -3.661477,3.661476 3.6618476,3.6618476 0 0 0 3.661477,3.661477 3.6618476,3.6618476 0 0 0 3.661477,-3.661477 3.6618476,3.6618476 0 0 0 -3.661477,-3.661476 z m -7.324809,7.324812 a 3.6608967,3.6608967 0 0 0 -3.661478,3.659618 3.6608967,3.6608967 0 0 0 3.661478,3.661478 3.6608967,3.6608967 0 0 0 3.661476,-3.661478 3.6608967,3.6608967 0 0 0 -3.661476,-3.659618 z"
   id="path2"
   inkscape:connector-curvature="0" />






</svg>