<?xml version="1.0" encoding="UTF-8" standalone="no"?>
<svg
   xmlns:dc="http://purl.org/dc/elements/1.1/"
   xmlns:cc="http://creativecommons.org/ns#"
   xmlns:rdf="http://www.w3.org/1999/02/22-rdf-syntax-ns#"
   xmlns:svg="http://www.w3.org/2000/svg"
   xmlns="http://www.w3.org/2000/svg"
   xmlns:sodipodi="http://sodipodi.sourceforge.net/DTD/sodipodi-0.dtd"
   xmlns:inkscape="http://www.inkscape.org/namespaces/inkscape"
   version="1.0"
   width="1280.000000pt"
   height="1280.000000pt"
   viewBox="0 0 1280.000000 1280.000000"
   preserveAspectRatio="xMidYMid meet"
   id="svg8"
   sodipodi:docname="palette.svg"
   inkscape:version="0.92.5 (2060ec1f9f, 2020-04-08)">
  <defs
     id="defs12" />
  <sodipodi:namedview
     pagecolor="#ffffff"
     bordercolor="#666666"
     borderopacity="1"
     objecttolerance="10"
     gridtolerance="10"
     guidetolerance="10"
     inkscape:pageopacity="0"
     inkscape:pageshadow="2"
     inkscape:window-width="640"
     inkscape:window-height="480"
     id="namedview10"
     showgrid="false"
     inkscape:zoom="0.13828125"
     inkscape:cx="-697.85311"
     inkscape:cy="853.33333"
     inkscape:current-layer="svg8" />
  <metadata
     id="metadata2">
Created by potrace 1.15, written by Peter Selinger 2001-2017
<rdf:RDF>
  <cc:Work
     rdf:about="">
    <dc:format>image/svg+xml</dc:format>
    <dc:type
       rdf:resource="http://purl.org/dc/dcmitype/StillImage" />
  </cc:Work>
</rdf:RDF>
</metadata>
  <g
     transform="matrix(0.13052674,0,0,-0.13052674,-195.43134,1475.3531)"
     id="g6"
     style="fill:#ffffff;fill-opacity:1;stroke:none;stroke-width:0.76612729">
    <path
       d="M 6135,11194 C 4943,11118 3886,10651 3047,9830 2285,9085 1800,8135 1651,7093 c -38,-261 -46,-384 -45,-698 0,-443 38,-760 139,-1165 89,-351 181,-602 350,-945 185,-376 364,-652 636,-980 118,-143 461,-481 616,-608 711,-581 1539,-940 2440,-1057 312,-41 690,-50 798,-20 182,51 328,143 434,275 130,161 191,350 177,555 -12,197 -68,325 -219,505 -67,80 -137,216 -163,320 -25,96 -25,285 0,380 63,243 225,437 449,540 149,68 141,67 887,75 371,4 686,10 700,13 14,4 70,13 125,22 536,84 1050,351 1447,752 324,327 539,688 672,1133 108,360 133,810 70,1265 -186,1335 -1066,2512 -2379,3180 -582,296 -1185,471 -1865,540 -147,15 -654,27 -785,19 z m -840,-1094 c 272,-86 474,-296 547,-568 28,-109 28,-287 -1,-397 -74,-281 -295,-502 -576,-576 -114,-30 -280,-30 -394,0 -277,73 -484,271 -571,546 -28,90 -38,267 -20,368 54,313 301,570 614,642 94,22 312,14 401,-15 z m 2603,15 c 315,-66 567,-325 622,-642 18,-101 8,-278 -20,-368 -87,-275 -294,-473 -571,-546 -114,-30 -280,-30 -394,0 -281,74 -502,295 -576,576 -30,112 -30,289 0,399 79,297 323,527 622,585 71,14 242,12 317,-4 z M 3590,7989 c 177,-28 313,-100 445,-233 133,-134 200,-272 225,-464 32,-245 -61,-496 -247,-673 -98,-94 -201,-151 -340,-191 -102,-29 -304,-31 -403,-4 -362,99 -600,408 -600,775 0,165 42,311 127,439 175,263 486,401 793,351 z m 5958,-19 c 348,-98 582,-408 582,-770 0,-165 -39,-297 -126,-433 -250,-387 -770,-483 -1146,-210 -122,88 -238,250 -286,399 -88,271 -20,577 175,785 123,130 271,213 438,245 96,19 269,11 363,-16 z"
       id="path4"
       style="fill:#ffffff;fill-opacity:1;stroke-width:0.76612729"
       inkscape:connector-curvature="0" />
  </g>
</svg>
