<?xml version="1.0" encoding="UTF-8" standalone="no"?>
<!-- Created with Inkscape (http://www.inkscape.org/) -->

<svg
   xmlns:dc="http://purl.org/dc/elements/1.1/"
   xmlns:cc="http://creativecommons.org/ns#"
   xmlns:rdf="http://www.w3.org/1999/02/22-rdf-syntax-ns#"
   xmlns:svg="http://www.w3.org/2000/svg"
   xmlns="http://www.w3.org/2000/svg"
   xmlns:sodipodi="http://sodipodi.sourceforge.net/DTD/sodipodi-0.dtd"
   xmlns:inkscape="http://www.inkscape.org/namespaces/inkscape"
   width="31.372078mm"
   height="31.372078mm"
   viewBox="0 0 31.372078 31.372078"
   version="1.1"
   id="svg1017"
   inkscape:version="0.92.5 (2060ec1f9f, 2020-04-08)"
   sodipodi:docname="am.svg"
   inkscape:export-filename="/home/jake/code/covid/img/am.png"
   inkscape:export-xdpi="323.85486"
   inkscape:export-ydpi="323.85486">
  <defs
     id="defs1011" />
  <sodipodi:namedview
     id="base"
     pagecolor="#ffffff"
     bordercolor="#666666"
     borderopacity="1.0"
     inkscape:pageopacity="0.0"
     inkscape:pageshadow="2"
     inkscape:zoom="2.8"
     inkscape:cx="24.854757"
     inkscape:cy="72.972249"
     inkscape:document-units="mm"
     inkscape:current-layer="g1675"
     showgrid="false" />
  <metadata
     id="metadata1014">
    <rdf:RDF>
      <cc:Work
         rdf:about="">
        <dc:format>image/svg+xml</dc:format>
        <dc:type
           rdf:resource="http://purl.org/dc/dcmitype/StillImage" />
        <dc:title />
      </cc:Work>
    </rdf:RDF>
  </metadata>
  <g
     inkscape:label="Layer 1"
     inkscape:groupmode="layer"
     id="layer1"
     transform="translate(67.694862,-138.55458)">
    <g
       transform="matrix(0.4227961,0,0,0.4227961,-71.014332,1.4420948)"
       id="g1486"
       style="stroke-width:2.365206">
      <g
         id="g1675"
         style="stroke-width:2.5799129"
         transform="matrix(0.91677746,0,0,0.91677746,56.365457,15.875681)">
        <rect
           style="opacity:1;vector-effect:none;fill:#f9b92e;fill-opacity:1;fill-rule:nonzero;stroke:none;stroke-width:1.36520398;stroke-linecap:butt;stroke-linejoin:miter;stroke-miterlimit:4;stroke-dasharray:none;stroke-dashoffset:6.08506203;stroke-opacity:0.18666669;paint-order:stroke markers fill"
           id="rect826"
           width="80.937241"
           height="80.937241"
           x="-52.918213"
           y="336.42148" />
        <g
           style="stroke-width:3.57771611"
           id="g841"
           transform="matrix(0.72053953,0,0,0.72167308,-10.890939,112.18136)">
          <path
             style="fill:#ffffff;fill-opacity:1;stroke:none;stroke-width:3.7864244;stroke-miterlimit:4;stroke-dasharray:none;stroke-opacity:0.11184214;paint-order:stroke markers fill"
             d="m -7.7639862,409.48019 c -1.1250276,-1.28133 -3.7675538,-7.38868 -6.9893538,-16.15366 -0.210516,-0.57271 -0.422187,-1.05675 -0.470381,-1.07565 -0.04819,-0.0188 -1.187418,0.28033 -2.531612,0.66496 -9.413145,2.69352 -16.106259,4.27602 -17.066248,4.03507 -0.268351,-0.0673 -0.32582,-0.34001 -0.217571,-1.03227 0.329885,-2.1096 2.253697,-7.14508 5.259421,-13.76625 l 0.948313,-2.08901 -3.695593,-3.67529 c -7.540553,-7.49912 -11.316209,-11.66124 -11.124993,-12.26371 0.152453,-0.48032 4.021002,-2.34611 10.210399,-4.92442 1.413808,-0.58893 2.913901,-1.20716 3.333538,-1.37381 0.653814,-0.25967 0.758009,-0.32531 0.728239,-0.45881 -0.01911,-0.0857 -0.453562,-1.11976 -0.965456,-2.29792 -2.910394,-6.69857 -4.693185,-11.61786 -4.693185,-12.95004 v -0.46965 l 0.681588,0.0412 c 1.148937,0.0693 2.826638,0.46343 11.470154,2.69391 2.516136,0.64929 3.596755,0.87975 3.732288,0.79599 0.193871,-0.11982 0.329856,-1.4 0.786494,-7.40424 0.66476,-8.74084 1.103977,-11.76227 1.709843,-11.76227 0.303495,0 1.402567,1.02451 4.498276,4.19314 5.7501092,5.88553 7.4143076,7.48581 7.9156409,7.61164 0.1435687,0.0361 0.3725646,-0.15814 1.3396681,-1.13601 4.9129457,-4.96758 12.3275899,-11.40094 14.428299,-12.5188 1.046733,-0.557 1.157869,-0.46353 1.083695,0.91148 -0.06137,1.13772 -0.258079,2.61575 -0.798756,6.00177 -1.13638,7.11665 -1.357066,8.72292 -1.354861,9.86135 6.23e-4,0.3386 0.03227,0.66471 0.07025,0.72469 0.183386,0.28964 1.185725,0.0118 8.4971,-2.35359 4.685814,-1.51611 7.17734,-2.21116 8.587676,-2.39568 0.90634,-0.1185 1.149297,-0.0542 1.149297,0.30487 0,0.5789 -1.310635,2.61749 -3.805225,5.91876 -0.884693,1.17076 -2.449806,3.24293 -3.47803,4.6048 -1.821565,2.41262 -2.687405,3.69988 -2.687405,3.9954 0,0.0907 0.09587,0.18559 0.254636,0.25192 0.396288,0.16558 2.67814,0.59265 7.301254,1.36649 3.980513,0.66627 6.353484,1.10768 6.444607,1.19882 0.21574,0.21573 -0.701233,1.53115 -5.163991,7.40785 -2.981727,3.92645 -4.294891,5.72831 -4.606812,6.32129 -0.186264,0.3541 -0.197937,0.417 -0.09942,0.53571 0.16301,0.19641 1.929729,1.65998 4.983532,4.12841 5.818238,4.70297 8.756832,7.17686 10.288139,8.66121 0.975442,0.94553 1.286698,1.37682 1.084472,1.50271 -0.794568,0.49464 -9.935901,1.49405 -22.122229,2.41862 -0.664063,0.0503 -1.221235,0.10422 -1.238164,0.11982 -0.01693,0.0155 0.200957,1.07177 0.48419,2.34727 2.160006,9.72721 3.059637,16.43791 2.349042,17.52241 -0.158871,0.24248 -0.320677,0.20092 -1.400328,-0.35957 -2.363232,-1.22688 -10.0996129,-6.3432 -17.49720792,-11.5715 l -0.593822,-0.41968 -0.99180738,2.89692 c -3.0755375,8.98319 -5.0139413,13.68549 -5.6414938,13.68549 -0.080977,0 -0.2547229,-0.12247 -0.3861001,-0.27206 z"
             id="path1482"
             inkscape:connector-curvature="0"
             sodipodi:nodetypes="csccccccscccccsccccsssccccsccccscsscsccscsccccccccccscc" />
          <path
             sodipodi:nodetypes="cccccscccccccssscscscssccccccsccccsccscccccc"
             inkscape:connector-curvature="0"
             id="path1638"
             d="m -7.7123615,409.46002 c -1.0383888,-1.08092 -3.1650615,-5.87839 -6.2586355,-14.11861 l -1.184381,-3.15477 -0.652473,-0.37473 c -2.684641,-1.54182 -5.86902,-4.0551 -7.881015,-6.22011 -2.530667,-2.72313 -3.997564,-5.2695 -4.76534,-8.2721 -0.743128,-2.9062 -1.07979,-6.10911 -1.077862,-10.25446 0.0025,-5.47319 0.494105,-8.15356 2.028534,-11.06119 1.461524,-2.7695 3.92531,-5.54759 6.898111,-7.77809 2.07086,-1.55379 4.560326,-2.82272 5.968507,-3.04228 0.708216,-0.1104 1.229727,0.15268 1.028037,0.51865 -0.142744,0.25901 -1.142634,1.17047 -2.500915,2.27976 -3.119856,2.54793 -4.879554,4.25375 -6.552234,6.35166 -1.676226,2.10236 -2.958031,4.55835 -3.532023,6.76752 -0.436053,1.67828 -0.541911,2.74432 -0.541945,5.45764 -3.9e-5,3.0923 0.173802,4.59516 0.850169,7.34972 0.983415,4.00506 2.92716,7.63922 5.550405,10.37746 2.484867,2.59379 4.724151,3.69644 9.624214,4.73911 2.4771827,0.52711 2.9860706,0.5848 5.1173449,0.58013 2.7993727,-0.006 5.45447174,-0.35335 8.5295882,-1.11547 5.650435,-1.40038 9.2098779,-3.2624 13.2812299,-6.94769 0.449849,-0.4072 1.884664,-1.83305 3.188479,-3.16858 1.303815,-1.33553 2.416751,-2.42823 2.473191,-2.42823 0.164663,0 0.122607,0.46783 -0.102469,1.1401 -0.611641,1.82681 -2.011655,4.12582 -3.835831,6.29894 -1.710751,2.03802 -4.432388,4.39054 -6.583111,5.69032 -1.977406,1.19502 -5.9351246,2.58171 -10.66351989,3.73624 -0.77272421,0.18867 -1.4287652,0.37076 -1.4578705,0.40464 -0.0291023,0.0339 -0.34329151,0.92038 -0.69819301,1.97002 -3.0506158,9.02242 -5.2975428,14.56652 -5.9035637,14.56652 -0.036198,0 -0.1920844,-0.13146 -0.346424,-0.29212 z m -0.4520625,-21.7546 c -0.6662423,-0.13852 -1.4740851,-0.60749 -2.066017,-1.19943 -1.290194,-1.29018 -1.984564,-3.18029 -1.984564,-5.40207 0,-1.2146 0.142038,-2.09155 0.501829,-3.09818 0.368013,-1.02966 0.816718,-1.75546 1.525816,-2.46811 1.306466,-1.31298 2.883668,-1.63472 4.4304339,-0.90379 0.380758,0.17993 0.6882714,0.41853 1.1889659,0.9225 0.594006,0.5979 0.7272983,0.78663 1.1063856,1.56654 0.2370583,0.48769 0.5019015,1.16964 0.5885417,1.51545 0.7084179,2.82748 0.061576,5.89977 -1.6181734,7.68582 -0.5845275,0.62152 -1.0865865,0.97036 -1.7525035,1.21766 -0.5228384,0.19418 -1.4100922,0.26974 -1.9207142,0.16361 z"
             style="fill:#e10015;fill-opacity:0.88235294;stroke-width:3.57772422" />
        </g>
        <g
           id="g833"
           transform="matrix(0.8857239,0,0,0.8857239,0.16113972,42.168433)"
           style="stroke-width:2.91277289">
          <rect
             y="366.38971"
             x="-5.2718377"
             height="8.0671511"
             width="21.070068"
             id="rect828"
             style="opacity:1;vector-effect:none;fill:#ffffff;fill-opacity:1;fill-rule:nonzero;stroke:none;stroke-width:1.5413425;stroke-linecap:butt;stroke-linejoin:miter;stroke-miterlimit:4;stroke-dasharray:none;stroke-dashoffset:6.08506203;stroke-opacity:0.18666669;paint-order:stroke markers fill" />
          <g
             transform="rotate(6.7950974,355.31969,-474.15032)"
             style="fill:#f9b92e;fill-opacity:1;stroke:none;stroke-width:2.91277289"
             id="g845">
            <path
               style="opacity:1;vector-effect:none;fill:#f9b92e;fill-opacity:1;fill-rule:nonzero;stroke:none;stroke-width:58.25548553;stroke-linecap:round;stroke-linejoin:round;stroke-miterlimit:4;stroke-dasharray:none;stroke-dashoffset:0;stroke-opacity:1;paint-order:markers fill stroke"
               d="m 97.82038,402.0746 c -1.779331,0.19914 -3.051123,1.79786 -2.852774,3.58345 l 0.370109,3.33115 c 0.198409,1.78572 1.789719,3.06256 3.568949,2.86319 l 18.414776,-2.06071 c 1.77941,-0.19935 3.05258,-1.79646 2.85472,-3.58241 l -0.37048,-3.3308 c -0.19822,-1.78606 -1.79087,-3.06387 -3.57073,-2.86483 z m 10.41333,0.53429 0.004,-3.7e-4 c 0.43707,-0.0474 0.88735,0.0262 1.29476,0.21999 0.0153,-0.0249 0.0211,-0.0489 0.0464,-0.0821 0.0409,-0.0553 0.0994,-0.1472 0.25166,-0.18556 0.1524,-0.0407 0.31394,0.0469 0.38623,0.12205 0.0737,0.0781 0.11119,0.15534 0.15696,0.2557 a 0.31571763,0.31687155 0 0 1 0.0208,0.0543 c 0.0466,0.18962 0.1211,0.60144 0.11775,0.96415 -0.001,0.18135 0.0302,0.35791 -0.16565,0.55753 -0.0982,0.10024 -0.29543,0.14357 -0.4238,0.10772 -0.12808,-0.0413 -0.21453,-0.11265 -0.30284,-0.1943 a 0.31571763,0.31687155 0 0 1 -0.0811,-0.14341 c -0.25865,-0.9306 -1.96952,-0.84579 -2.1969,0.0608 -0.0484,0.21158 -0.0191,0.32557 0.0394,0.42357 0.0579,0.0982 0.1721,0.18973 0.33597,0.26448 0.32829,0.14902 0.83382,0.20407 1.20273,0.2137 l -0.0362,0.004 c 0.52957,-0.0459 1.08038,0.0956 1.50881,0.41227 0.42844,0.31607 0.72488,0.84018 0.66868,1.46576 -0.0481,0.68648 -0.46695,1.21988 -0.995,1.53635 -0.52548,0.3152 -1.16277,0.43952 -1.75254,0.35804 -0.16677,0.0203 -0.32202,-0.002 -0.44435,-0.0514 -0.15998,-0.0718 -0.29724,-0.16198 -0.40521,-0.22813 -0.0612,0.0872 -0.1217,0.16814 -0.22476,0.22808 -0.11072,0.0655 -0.30751,0.0787 -0.42884,0.005 -0.12046,-0.0769 -0.16742,-0.16685 -0.20416,-0.24751 -0.0372,-0.0813 -0.0577,-0.16195 -0.0783,-0.24501 -0.0398,-0.16617 -0.0608,-0.34491 -0.0807,-0.50171 -0.0163,-0.15697 -0.0303,-0.29949 -0.0378,-0.33522 a 0.31571763,0.31687155 0 0 1 -0.006,-0.0814 c 0.0121,-0.12598 0.0211,-0.22928 0.0503,-0.32571 0.0281,-0.0956 0.0727,-0.20049 0.18986,-0.28408 0.11723,-0.0833 0.29949,-0.0803 0.39699,-0.0368 0.098,0.0469 0.15274,0.0966 0.20381,0.1513 0.1865,0.19933 0.30942,0.45633 0.39251,0.59724 0.32557,0.29318 0.85292,0.41778 1.33259,0.33287 0.48351,-0.0823 0.88259,-0.35644 1.03012,-0.80002 0.0578,-0.18517 0.0468,-0.31095 -4.7e-4,-0.42177 -0.0468,-0.11322 -0.13651,-0.21274 -0.27,-0.30318 -0.26728,-0.18085 -0.69956,-0.2829 -1.02127,-0.26399 a 0.31571763,0.31687155 0 0 1 -0.0466,0.002 c -0.37277,-0.0302 -0.84691,-0.0536 -1.29045,-0.21003 -0.44275,-0.15247 -0.87843,-0.47627 -1.02863,-1.03044 -2.5e-4,-0.001 0,-0.002 -2.3e-4,-0.004 -0.18626,-0.60689 0.0167,-1.21035 0.38835,-1.63503 0.37502,-0.42779 0.92037,-0.70757 1.49613,-0.72606 z m -3.84023,0.53631 c 0.10197,-4e-5 0.19943,0.0195 0.28914,0.0752 0.17931,0.10246 0.27142,0.31514 0.25392,0.49559 -0.0206,0.23039 -0.21658,0.37509 -0.45228,0.45306 l 0.41429,3.72841 a 0.31571763,0.31687155 0 0 1 -0.001,0.0157 c 0.0163,0.19565 0.0377,0.37914 0.056,0.43203 0.004,-1.4e-4 0.0167,0.009 0.0965,-0.0172 a 0.31571763,0.31687155 0 0 1 0.31703,0.0659 c 0.0807,0.078 0.15341,0.15829 0.19004,0.28365 0.0372,0.1243 0.002,0.29317 -0.0716,0.38922 -0.14472,0.192 -0.30871,0.21482 -0.4658,0.25183 -0.30926,0.0757 -0.66333,0.0795 -0.79696,0.0827 l -0.0153,10e-4 c -0.17972,0.0492 -0.35883,0.0691 -0.5178,-0.0257 -0.18805,-0.11333 -0.25686,-0.34533 -0.22526,-0.51988 0.0405,-0.21578 0.22521,-0.35732 0.45006,-0.43333 l -0.45609,-4.10508 c -0.0956,-0.0196 -0.20092,-0.0489 -0.30758,-0.10391 -0.0575,-0.0257 -0.11762,-0.054 -0.18035,-0.11387 -0.062,-0.0549 -0.13737,-0.1627 -0.14122,-0.3025 -0.004,-0.14077 0.0722,-0.25538 0.14347,-0.32386 0.0734,-0.0696 0.15224,-0.11377 0.24593,-0.15663 a 0.31571763,0.31687155 0 0 1 0.0938,-0.0251 c 0.27995,-0.0305 0.55894,-0.0622 0.83933,-0.0928 l -0.074,0.0169 c 0.10477,-0.0408 0.20752,-0.0611 0.30884,-0.0611 z m -5.246176,0.59783 c 0.481044,-0.0576 0.980276,-0.0921 1.492786,-0.0172 1.23792,0.17002 1.99775,1.65243 1.3444,2.743 -0.34504,0.56961 -0.89531,0.87157 -1.45372,1.02606 -0.44718,0.12236 -0.890151,0.14183 -1.314096,0.17084 l 0.07835,0.69252 -0.01,-0.0426 c 0.0694,0.28092 0.034,0.53227 0.05245,0.62768 0,0 2.23e-4,10e-4 2.23e-4,10e-4 -0.01,-0.005 -0.01529,0.007 0.08315,-0.0171 a 0.31571763,0.31687155 0 0 1 0.243058,0.0474 c 0.09479,0.0637 0.174888,0.12723 0.237236,0.23627 0.0623,0.11232 0.07637,0.29782 0.01203,0.41787 -0.132505,0.24009 -0.306927,0.2513 -0.464254,0.29223 -0.314804,0.0825 -0.686597,0.0979 -0.838338,0.10762 -0.181154,0.05 -0.368499,0.0543 -0.520344,-0.0486 -0.181204,-0.13226 -0.225836,-0.35314 -0.194335,-0.52345 0.0311,-0.17022 0.129177,-0.33319 0.299071,-0.43127 0.03712,-0.0188 0.0905,0.016 0.133158,-0.001 l -0.452136,-4.06946 a 0.31571763,0.31687155 0 0 1 -9.5e-4,-0.0308 c -0.04104,-0.0169 -0.0879,-0.0361 -0.170957,-0.0543 -0.05476,-0.0169 -0.112087,-0.0321 -0.180447,-0.062 -0.06842,-0.0286 -0.174576,-0.071 -0.239374,-0.22989 -0.03268,-0.0814 -0.03324,-0.17996 -0.01366,-0.25263 0.02208,-0.0751 0.05792,-0.12025 0.09228,-0.16197 0.06934,-0.0812 0.144977,-0.13269 0.244532,-0.19551 a 0.31571763,0.31687155 0 0 1 0.151685,-0.0481 c 0.441628,-0.0212 0.903235,-0.11343 1.38423,-0.17141 z m 14.846896,-1.65577 c 0.21716,-0.0197 0.43325,-0.0474 0.65206,-0.0718 a 0.31571763,0.31687155 0 0 1 0.31684,0.17464 c 0.62146,1.23157 1.24346,2.46388 1.86473,3.69548 0.20655,0.27304 0.27665,0.58647 0.37189,0.79021 0.0504,0.1113 0.10488,0.17586 0.13697,0.20196 0.0333,0.024 0.0466,0.0408 0.13456,0.0209 a 0.31571763,0.31687155 0 0 1 0.12422,0.005 c 0.11023,0.0265 0.20315,0.057 0.29475,0.12539 0.0907,0.0677 0.19626,0.22048 0.181,0.37616 -0.0167,0.15562 -0.0996,0.24033 -0.16564,0.29783 -0.0673,0.0541 -0.13593,0.0931 -0.20699,0.12813 -0.14462,0.0693 -0.30739,0.11454 -0.469,0.14444 -0.12085,0.0178 -0.24489,0.0157 -0.37329,-0.0127 -0.32206,0.11466 -0.65555,0.0711 -0.83079,-0.1893 -0.10024,-0.14703 -0.11312,-0.39996 0.009,-0.56541 0.0659,-0.0849 0.18203,-0.0997 0.2774,-0.14304 -0.0205,-0.0603 -0.0533,-0.14385 -0.11408,-0.24984 -0.10197,-0.17963 -0.20773,-0.38721 -0.30827,-0.59307 l -1.72297,0.19279 0.0608,-0.0159 c -0.23314,0.0771 -0.41242,0.0452 -0.50302,0.0483 -10e-4,0.17201 -0.0444,0.32045 -0.0857,0.4633 -0.0486,0.15673 -0.10444,0.30961 -0.12697,0.41805 -0.009,0.0412 -0.0158,0.0157 -0.0158,0.0291 0.0171,-0.002 0.0158,0.004 0.0426,-0.002 a 0.31571763,0.31687155 0 0 1 0.27565,0.0828 c 0.0793,0.0785 0.14589,0.16321 0.17746,0.29099 0.0311,0.12723 -0.0121,0.28827 -0.082,0.38015 -0.14783,0.18392 -0.30937,0.21053 -0.4664,0.2459 -0.31281,0.0724 -0.67676,0.0746 -0.78988,0.0818 l -0.005,4.2e-4 c -0.18256,0.0517 -0.36513,0.0727 -0.52658,-0.0246 -0.18794,-0.11354 -0.25403,-0.34594 -0.22245,-0.5202 0.0462,-0.24269 0.27193,-0.38928 0.53876,-0.44313 0.42893,-1.71135 0.85892,-3.42264 1.2877,-5.13366 a 0.31571763,0.31687155 0 0 1 0.27391,-0.24085 z m -15.09353,2.73568 0.20542,1.84949 c 0.04854,0.005 0.146435,0.002 0.273029,-0.0191 0.276212,-0.0494 0.594938,-0.18419 0.946511,-0.151 l -0.0627,-0.002 c 0.35337,-0.0434 0.68016,-0.30181 0.82638,-0.61494 0.14508,-0.31111 0.1375,-0.62159 -0.15052,-0.89768 -0.28054,-0.25132 -0.60555,-0.29977 -1.019562,-0.27616 -0.311305,0.0168 -0.667583,0.0771 -1.018319,0.11388 z m 15.55461,-1.30534 c -0.15462,0.62842 -0.30908,1.25688 -0.46356,1.88528 l 1.34566,-0.15041 a 0.31571763,0.31687155 0 0 1 0.0505,-1.1e-4 c -0.0391,-0.0796 -0.0518,-0.12052 -0.13894,-0.25033 l 0.007,0.006 c -0.25265,-0.36353 -0.40767,-0.7856 -0.5739,-1.15338 -0.0693,-0.15132 -0.1538,-0.21394 -0.22728,-0.3364 z m 2.10154,3.43168 -0.12754,0.0479 c -0.0122,0.006 -0.0122,0.0168 -0.0172,0.0215 0.051,-0.0167 0.0835,-0.0642 0.14498,-0.0761 z"
               id="rect1660"
               inkscape:connector-curvature="0" />
          </g>
        </g>
      </g>
    </g>
  </g>
</svg>
