<?xml version="1.0" encoding="UTF-8" standalone="no"?>
<svg
   xmlns:dc="http://purl.org/dc/elements/1.1/"
   xmlns:cc="http://creativecommons.org/ns#"
   xmlns:rdf="http://www.w3.org/1999/02/22-rdf-syntax-ns#"
   xmlns:svg="http://www.w3.org/2000/svg"
   xmlns="http://www.w3.org/2000/svg"
   xmlns:sodipodi="http://sodipodi.sourceforge.net/DTD/sodipodi-0.dtd"
   xmlns:inkscape="http://www.inkscape.org/namespaces/inkscape"
   version="1.1"
   id="Layer_1"
   x="0px"
   y="0px"
   viewBox="0 0 160.18059 157.47029"
   xml:space="preserve"
   width="160.1806"
   height="157.47028"
   sodipodi:docname="covid19_response.svg"
   inkscape:version="0.92.5 (2060ec1f9f, 2020-04-08)"><sodipodi:namedview
   pagecolor="#ffffff"
   bordercolor="#666666"
   borderopacity="1"
   objecttolerance="10"
   gridtolerance="10"
   guidetolerance="10"
   inkscape:pageopacity="0"
   inkscape:pageshadow="2"
   inkscape:window-width="640"
   inkscape:window-height="480"
   id="namedview25"
   showgrid="false"
   inkscape:zoom="1.4986955"
   inkscape:cx="97.105098"
   inkscape:cy="-1.3344939"
   inkscape:current-layer="Layer_1" /><metadata
   id="metadata141"><rdf:RDF><cc:Work
       rdf:about=""><dc:format>image/svg+xml</dc:format><dc:type
         rdf:resource="http://purl.org/dc/dcmitype/StillImage" /><dc:title /></cc:Work></rdf:RDF></metadata><defs
   id="defs139">
	
	
	
	
	
	
	
	
	
	
	
	
	
	
	
</defs>
<style
   type="text/css"
   id="style2">
	.st0{fill:#CE8B4E;}
	.st1{fill:#80C342;}
	.st2{fill:#F26531;}
	.st3{fill:#008DD0;}
	.st4{fill:#993F98;}
	.st5{fill:#C9252C;}
	.st6{fill:#349E49;}
	.st7{fill:#103856;}
	.st8{fill:#009EDB;}
	.st9{fill:#E4243C;}
	.st10{fill:#DDA639;}
	.st11{fill:#4C9E45;}
	.st12{fill:#C4202F;}
	.st13{fill:#EF412B;}
	.st14{fill:#26BDE3;}
	.st15{fill:#FAC212;}
	.st16{fill:#A31D43;}
	.st17{fill:#F26A2C;}
	.st18{fill:#DE1767;}
	.st19{fill:#F99E26;}
	.st20{fill:#BF8B2C;}
	.st21{fill:#3F7E45;}
	.st22{fill:#1B95D3;}
	.st23{fill:#5BBA47;}
	.st24{fill:#006A9E;}
	.st25{fill:#18486B;}
</style>
<g
   transform="matrix(0.70678842,0,0,0.70678842,-3.7364135,-3.600753)"
   style="fill:#ffc0c0;fill-opacity:0.7647059;stroke-width:1.41484964"
   id="g848"><path
     inkscape:connector-curvature="0"
     class="st0"
     d="m 113.9,43.2 c -0.6,-0.6 -1.4,-0.9 -2.2,-0.9 -0.1,0 -0.2,0 -0.3,0 -16.6,1.7 -32.3,9.2 -44.1,21.1 -0.6,0.6 -0.9,1.5 -0.9,2.3 0.1,0.9 0.5,1.7 1.2,2.2 v 0 c 0.5,0.4 1.2,0.7 1.9,0.7 0.8,0 1.6,-0.3 2.2,-0.9 3.7,-3.7 7.7,-6.9 12.1,-9.6 0.3,-0.2 0.6,0 0.6,0.3 -0.1,1.5 0.3,3.1 1.1,4.5 1.9,3.1 5.8,4.5 9.2,3.2 4.4,-1.6 6.4,-6.6 4.4,-10.7 -0.6,-1.2 -1.5,-2.2 -2.5,-3 -0.2,-0.2 -0.2,-0.6 0.1,-0.7 4.9,-1.7 10,-2.9 15.2,-3.4 1.5,-0.2 2.8,-1.3 2.9,-2.8 0,-0.8 -0.3,-1.7 -0.9,-2.3 z"
     id="path4"
     style="opacity:1;fill:#ffc0c0;fill-opacity:0.7647059;stroke-width:1.40392399" /><path
     inkscape:connector-curvature="0"
     class="st1"
     d="M 60.9,92.9 C 59.5,92.5 58,92.6 56.7,93 c -0.3,0.1 -0.6,-0.2 -0.5,-0.5 1.7,-4.9 4,-9.6 6.8,-14 0.9,-1.3 0.7,-3.1 -0.5,-4.2 -1,-0.9 -2.4,-1 -3.6,-0.3 -0.4,0.3 -0.8,0.6 -1.1,1.1 -7.5,11.6 -11.4,25.1 -11.4,39 0,2.8 0.2,5.7 0.5,8.5 0.2,1.6 1.5,2.7 3.1,2.7 0.2,0 0.5,0 0.7,-0.1 1.6,-0.3 2.6,-1.8 2.4,-3.4 -0.3,-2.6 -0.5,-5.2 -0.5,-7.7 0,-2.6 0.2,-5.2 0.5,-7.8 0,-0.3 0.4,-0.4 0.6,-0.2 1,0.9 2.2,1.5 3.5,1.9 4.3,1 8.5,-1.8 9.4,-6.1 0.7,-4 -1.8,-8 -5.7,-9 z"
     id="path6"
     style="opacity:1;fill:#ffc0c0;fill-opacity:0.7647059;stroke-width:1.40392399" /><path
     inkscape:connector-curvature="0"
     class="st2"
     d="m 179.7,75.5 c -0.6,-0.9 -1.6,-1.5 -2.7,-1.6 -0.7,0 -1.4,0.2 -1.9,0.7 -1.3,1 -1.6,2.8 -0.7,4.1 2.8,4.4 5,9 6.7,13.9 0.1,0.3 -0.2,0.6 -0.5,0.5 -1.3,-0.4 -2.8,-0.5 -4.2,-0.1 -3.9,1 -6.4,5 -5.7,8.9 0.8,4.4 5.1,7.1 9.4,6.1 1.4,-0.3 2.6,-1 3.5,-1.9 0.2,-0.2 0.6,-0.1 0.6,0.2 0.3,2.6 0.5,5.1 0.5,7.7 0,2.7 -0.2,5.4 -0.5,8.1 -0.2,1.6 0.8,3 2.4,3.4 0.2,0.1 0.5,0.1 0.7,0.1 1.6,0 2.9,-1.2 3.1,-2.7 0.4,-2.9 0.5,-5.9 0.5,-8.8 0,-13.7 -3.8,-27.1 -11.2,-38.6 z"
     id="path8"
     style="opacity:1;fill:#ffc0c0;fill-opacity:0.7647059;stroke-width:1.40392399" /><path
     inkscape:connector-curvature="0"
     class="st3"
     d="M 170.3,63.5 C 158.6,51.5 143,44 126.4,42.2 c -0.1,0 -0.2,0 -0.3,0 -1.8,0 -3.2,1.5 -3.1,3.3 0.1,1.5 1.4,2.7 2.9,2.9 5.1,0.6 10.1,1.7 14.9,3.4 0.3,0.1 0.3,0.5 0.1,0.7 -1.3,0.9 -2.3,2.1 -2.8,3.7 -1.2,3.4 0.1,7.3 3.2,9.2 4,2.5 9.1,0.9 11.1,-3.2 0.6,-1.2 0.8,-2.6 0.8,-3.8 0,-0.3 0.3,-0.5 0.6,-0.3 4.4,2.8 8.6,6.1 12.3,9.8 0.6,0.6 1.4,0.9 2.2,0.9 0.7,0 1.4,-0.2 1.9,-0.7 1,-0.8 1.4,-2.1 1.1,-3.4 -0.4,-0.3 -0.7,-0.8 -1,-1.2 z"
     id="path10"
     style="opacity:1;fill:#ffc0c0;fill-opacity:0.7647059;stroke-width:1.40392399" /><path
     inkscape:connector-curvature="0"
     class="st4"
     d="m 144.7,177.9 c -0.5,-1.1 -1.6,-1.8 -2.8,-1.8 -0.4,0 -0.7,0.1 -1,0.2 -4.9,1.8 -10,2.9 -15.1,3.5 -0.3,0 -0.5,-0.3 -0.4,-0.6 0.7,-1.2 1.1,-2.6 1.1,-4.1 -0.1,-4 -3.4,-7.4 -7.5,-7.6 -4.4,-0.2 -8.1,3.4 -8.1,7.8 0,1.4 0.4,2.8 1.1,3.9 0.2,0.3 -0.1,0.6 -0.4,0.6 -5.3,-0.6 -10.5,-1.8 -15.5,-3.6 -0.3,-0.1 -0.7,-0.2 -1.1,-0.2 -1.2,0 -2.3,0.7 -2.8,1.7 -0.4,0.8 -0.4,1.7 -0.1,2.5 0.3,0.8 1,1.4 1.8,1.7 7.9,2.9 16.2,4.3 24.7,4.3 8.3,0 16.5,-1.4 24.3,-4.2 0.8,-0.3 1.5,-0.9 1.8,-1.7 0.4,-0.6 0.4,-1.6 0,-2.4 z"
     id="path12"
     style="opacity:1;fill:#ffc0c0;fill-opacity:0.7647059;stroke-width:1.40392399" /><path
     inkscape:connector-curvature="0"
     class="st5"
     d="m 186.8,135.1 c -0.4,-0.8 -1.2,-1.3 -2,-1.5 -0.2,-0.1 -0.5,-0.1 -0.7,-0.1 -1.3,0 -2.5,0.8 -2.9,2.1 -1.7,4.9 -4,9.6 -6.7,13.9 -0.2,0.3 -0.5,0.2 -0.7,-0.1 -0.5,-1.3 -1.4,-2.4 -2.5,-3.3 -3.2,-2.4 -7.9,-1.9 -10.5,1.1 -2.9,3.4 -2.4,8.4 1,11.1 1.1,0.9 2.4,1.4 3.6,1.6 0.3,0 0.4,0.4 0.2,0.6 -3.7,3.7 -7.7,7 -12.2,9.7 -1.1,0.7 -1.8,2 -1.5,3.3 0.3,1.5 1.6,2.5 3.1,2.5 0.6,0 1.1,-0.2 1.6,-0.5 14.3,-8.8 25.1,-22.3 30.5,-38.1 0.2,-0.6 0.1,-1.5 -0.3,-2.3 z"
     id="path14"
     style="opacity:1;fill:#ffc0c0;fill-opacity:0.7647059;stroke-width:1.40392399" /><path
     inkscape:connector-curvature="0"
     class="st6"
     d="m 83.8,170.3 c -4.4,-2.8 -8.5,-6 -12.1,-9.7 -0.2,-0.2 -0.1,-0.6 0.2,-0.6 1.4,-0.2 2.7,-0.8 3.8,-1.7 3.1,-2.6 3.6,-7.3 1.2,-10.5 -2.6,-3.6 -7.7,-4.2 -11.1,-1.5 -1.1,0.9 -1.9,2 -2.4,3.2 -0.1,0.3 -0.5,0.3 -0.7,0.1 -2.8,-4.4 -5.1,-9.2 -6.8,-14.2 -0.4,-1.3 -1.6,-2.1 -2.9,-2.1 -0.2,0 -0.5,0 -0.7,0.1 -0.9,0.2 -1.6,0.7 -2,1.5 -0.4,0.8 -0.5,1.7 -0.2,2.5 5.3,15.8 16.1,29.4 30.3,38.3 0.5,0.3 1.1,0.5 1.6,0.5 1.2,0 2.3,-0.7 2.8,-1.8 0.9,-1.6 0.4,-3.3 -1,-4.1 z"
     id="path16"
     style="opacity:1;fill:#ffc0c0;fill-opacity:0.7647059;stroke-width:1.40392399" /></g><g
   transform="matrix(0.6752585,0,0,0.6752585,0.00464248,3.5684166e-7)"
   style="fill:#ffc0c0;fill-opacity:0.7647059;stroke-width:1.480914"
   id="g956"><path
     inkscape:connector-curvature="0"
     class="st7"
     d="m 183.8,53.6 c 0.6,0.6 1.4,1 2.3,1 0.7,0 1.4,-0.2 1.9,-0.7 0.7,-0.5 1.1,-1.3 1.2,-2.2 0.1,-0.9 -0.2,-1.7 -0.8,-2.4 -7.1,-7.6 -15.3,-14 -24.5,-19 -0.4,-0.2 -0.6,-0.8 -0.4,-1.2 l 6.9,-14.3 c 0.2,-0.5 0.8,-0.7 1.3,-0.4 3.8,2 7.6,4.3 11.1,6.8 0.4,0.3 0.9,0.5 1.5,0.6 1.3,0.2 2.6,-0.5 3.1,-1.7 0.7,-1.4 0.2,-3 -1,-3.9 -10,-7 -21,-12.3 -32.6,-15.9 -0.3,-0.1 -0.6,-0.1 -0.9,-0.1 0,0 0,0 0,0 -1.2,0 -2.3,0.7 -2.8,1.7 -0.6,1.1 -0.4,2.5 0.6,3.5 0.4,0.4 0.9,0.7 1.4,0.8 3.9,1.2 7.9,2.7 11.7,4.3 0.5,0.2 0.7,0.8 0.5,1.3 l -6.9,14.3 c -0.2,0.4 -0.7,0.6 -1.2,0.4 -9.4,-4 -19.4,-6.5 -29.7,-7.3 -0.1,0 -0.2,0 -0.2,0 -1.7,0 -3.1,1.4 -3.1,3.1 0,1.6 1.2,3 2.8,3.1 10.5,0.8 20.6,3.5 30.1,7.8 9.5,4.4 18.1,10.4 25.6,17.9 0.6,0.9 1.3,1.7 2.1,2.5 z"
     id="path18"
     style="fill:#ffc0c0;fill-opacity:0.7647059;stroke-width:1.48796785" /><path
     inkscape:connector-curvature="0"
     class="st7"
     d="M 73.7,190.9 C 67.2,187.1 61.2,182.4 55.8,177 45.5,166.7 37.9,154.1 33.7,140.4 c -0.4,-1.3 -1.6,-2.2 -2.9,-2.2 -0.2,0 -0.5,0 -0.7,0.1 -0.8,0.2 -1.6,0.7 -2,1.5 -0.4,0.7 -0.5,1.6 -0.3,2.5 3.1,9.9 7.7,19.2 13.8,27.7 0.3,0.4 0.2,1 -0.2,1.3 L 29,181 c -0.4,0.3 -1,0.2 -1.3,-0.2 -2.6,-3.6 -5.1,-7.3 -7.2,-11.1 -0.6,-1 -1.6,-1.7 -2.7,-1.7 -0.7,0 -1.4,0.2 -2,0.7 -1.2,0.9 -1.5,2.6 -0.8,3.9 6,10.6 13.5,20.2 22.4,28.5 0.6,0.5 1.3,0.8 2.1,0.8 0.7,0 1.4,-0.2 1.9,-0.7 1,-0.8 1.4,-2.1 1,-3.4 -0.2,-0.5 -0.5,-1 -0.9,-1.3 -1,-0.9 -1.8,-1.7 -2.7,-2.6 -1.9,-1.9 -3.9,-4 -5.7,-6.2 -0.3,-0.4 -0.3,-1 0.1,-1.3 l 12.4,-9.9 c 0.4,-0.3 0.9,-0.3 1.3,0.1 6.8,7.8 14.7,14.4 23.6,19.6 0.5,0.3 1,0.4 1.6,0.4 1.2,0 2.3,-0.7 2.8,-1.7 0.7,-1.5 0.2,-3.2 -1.2,-4 z"
     id="path20"
     style="fill:#ffc0c0;fill-opacity:0.7647059;stroke-width:1.48796785" /><path
     inkscape:connector-curvature="0"
     class="st7"
     d="m 151.9,196.9 c -0.4,0 -0.7,0.1 -1.1,0.2 -10.2,3.9 -21,5.9 -32.1,5.9 h -0.1 c -11.2,0 -22.2,-2.1 -32.5,-6.1 -0.4,-0.1 -0.7,-0.2 -1.1,-0.2 -1.2,0 -2.3,0.7 -2.8,1.7 -0.4,0.8 -0.4,1.7 -0.1,2.5 0.3,0.8 1,1.4 1.8,1.8 9.7,3.8 19.9,6 30.4,6.4 0.5,0 0.9,0.4 0.9,0.9 v 15.9 c 0,0.5 -0.4,1 -1,0.9 -4.3,-0.2 -8.6,-0.6 -12.8,-1.2 -0.2,0 -0.3,0 -0.5,0 -0.8,0 -1.6,0.3 -2.2,0.9 -0.6,0.6 -0.9,1.4 -0.9,2.2 0,1.5 1.1,2.8 2.6,3.1 6,0.9 12.1,1.4 18.1,1.4 6,0 12.1,-0.5 18.1,-1.4 1.5,-0.2 2.6,-1.5 2.6,-3.1 0,-1.7 -1.4,-3.1 -3.1,-3.1 -0.2,0 -0.3,0 -0.5,0 -4.2,0.6 -8.5,1 -12.8,1.2 -0.5,0 -1,-0.4 -1,-0.9 V 210 c 0,-0.5 0.4,-0.9 0.9,-0.9 10.3,-0.5 20.4,-2.6 30,-6.3 0.8,-0.3 1.4,-0.9 1.8,-1.7 0.3,-0.8 0.3,-1.7 -0.1,-2.5 -0.3,-1 -1.4,-1.7 -2.5,-1.7 z"
     id="path22"
     style="fill:#ffc0c0;fill-opacity:0.7647059;stroke-width:1.48796785" /><path
     inkscape:connector-curvature="0"
     class="st7"
     d="m 114.8,22.4 c 0,-0.8 -0.3,-1.6 -0.9,-2.2 -0.6,-0.6 -1.4,-0.9 -2.2,-0.9 -0.1,0 -0.2,0 -0.2,0 -10.4,0.8 -20.5,3.2 -30.1,7.3 -0.5,0.2 -1,0 -1.2,-0.4 L 73.3,11.8 c -0.2,-0.5 0,-1 0.5,-1.3 4,-1.7 8.2,-3.3 12.4,-4.5 0.5,-0.2 1,-0.4 1.4,-0.8 0.9,-1 1.1,-2.4 0.6,-3.5 C 87.6,0.7 86.5,0 85.3,0 85,0 84.7,0 84.4,0.1 72.8,3.6 61.8,8.9 51.7,15.7 c -1.2,0.8 -1.7,2.5 -1,3.9 0.5,1.1 1.6,1.8 2.8,1.8 0.6,0 1.2,-0.2 1.7,-0.5 3.4,-2.3 7,-4.5 10.7,-6.4 0.5,-0.2 1,-0.1 1.3,0.4 l 6.9,14.4 c 0.2,0.4 0,1 -0.4,1.2 -9.1,4.9 -17.2,11.2 -24.3,18.7 -0.6,0.6 -0.9,1.5 -0.8,2.3 0.1,0.9 0.5,1.7 1.2,2.2 0.5,0.4 1.2,0.7 1.9,0.7 0.9,0 1.7,-0.4 2.3,-1 0.6,-0.7 1.3,-1.4 1.9,-2 7.6,-7.6 16.2,-13.6 25.8,-18 9.6,-4.4 19.8,-7 30.3,-7.8 1.6,-0.2 2.8,-1.6 2.8,-3.2 z"
     id="path24"
     style="fill:#ffc0c0;fill-opacity:0.7647059;stroke-width:1.48796785" /><path
     inkscape:connector-curvature="0"
     class="st7"
     d="m 221.1,169.5 c -0.6,-0.5 -1.3,-0.7 -2,-0.7 -1.1,0 -2.1,0.7 -2.7,1.7 -2.1,3.6 -4.4,7.1 -6.9,10.5 -0.3,0.4 -0.9,0.5 -1.3,0.2 l -12.4,-9.9 c -0.4,-0.3 -0.5,-0.9 -0.2,-1.3 6.1,-8.3 10.7,-17.5 13.8,-27.3 0.3,-0.8 0.2,-1.7 -0.3,-2.5 -0.4,-0.7 -1.2,-1.3 -2,-1.5 -0.2,-0.1 -0.5,-0.1 -0.7,-0.1 -1.4,0 -2.5,0.9 -2.9,2.2 -4.2,13.5 -11.8,26 -22,36.2 -5.5,5.5 -11.6,10.2 -18.2,14 -1,0.6 -1.7,1.7 -1.6,2.9 0.1,1.7 1.5,2.9 3.1,2.9 0.5,0 1.1,-0.1 1.6,-0.4 9,-5.2 17,-11.9 23.9,-19.7 0.3,-0.4 0.9,-0.4 1.3,-0.1 l 12.4,9.9 c 0.4,0.3 0.5,0.9 0.1,1.3 -1.9,2.1 -3.7,4.2 -5.6,6.1 -1,1 -2.2,2.1 -3.3,3.2 -0.4,0.4 -0.7,0.8 -0.9,1.3 -0.4,1.3 0,2.6 1,3.4 0.5,0.4 1.2,0.7 1.9,0.7 0.8,0 1.5,-0.3 2.1,-0.8 9,-8.3 16.6,-17.8 22.6,-28.3 0.8,-1.3 0.4,-3 -0.8,-3.9 z"
     id="path26"
     style="fill:#ffc0c0;fill-opacity:0.7647059;stroke-width:1.48796785" /><path
     inkscape:connector-curvature="0"
     class="st7"
     d="m 229.4,70.5 c -0.5,-1.2 -1.6,-1.9 -2.9,-1.9 -0.2,0 -0.5,0 -0.7,0.1 -1.2,0.3 -2.2,1.3 -2.4,2.6 -0.1,0.5 0,1.1 0.2,1.6 1.5,3.9 2.8,7.9 3.9,12 0.1,0.5 -0.2,1 -0.7,1.1 l -15.5,3.5 c -0.5,0.1 -1,-0.2 -1.1,-0.7 -2.7,-9.9 -7,-19.2 -12.7,-27.6 -0.6,-0.9 -1.6,-1.5 -2.7,-1.5 -0.7,0 -1.4,0.2 -1.9,0.7 -1.3,1 -1.5,2.8 -0.6,4.1 9.9,14.6 15.2,31.8 15.2,49.7 0,4.4 -0.3,8.8 -1,13.1 -0.2,1.5 0.8,3 2.2,3.4 0.2,0.1 0.5,0.1 0.7,0.1 1.6,0.1 3,-1.2 3.2,-2.8 0.7,-4.6 1,-9.3 1,-13.9 0,-5.7 -0.5,-11.4 -1.5,-16.9 -0.1,-0.5 0.2,-1 0.7,-1.1 l 15.5,-3.5 c 0.5,-0.1 1,0.2 1.1,0.7 0.8,4.3 1.3,8.6 1.6,12.9 0.1,1.6 1.5,2.9 3.1,2.9 0.2,0 0.5,0 0.7,-0.1 1.5,-0.3 2.5,-1.7 2.4,-3.2 -0.6,-12.1 -3.3,-24 -7.8,-35.3 z"
     id="path28"
     style="fill:#ffc0c0;fill-opacity:0.7647059;stroke-width:1.48796785" /><path
     inkscape:connector-curvature="0"
     class="st7"
     d="m 23.6,114.1 c 0,4.5 0.3,9.1 1,13.6 0.2,1.5 1.5,2.7 3.1,2.7 0.2,0 0.5,0 0.7,-0.1 1.6,-0.4 2.6,-1.9 2.4,-3.4 -0.6,-4.2 -0.9,-8.5 -0.9,-12.7 0,-18 5.3,-35.3 15.4,-50 0.9,-1.3 0.6,-3.1 -0.6,-4.1 -0.6,-0.5 -1.4,-0.7 -2.3,-0.7 -0.9,0.1 -1.8,0.7 -2.3,1.5 -5.8,8.6 -10.2,17.9 -12.9,27.9 -0.1,0.5 -0.6,0.8 -1.1,0.7 L 10.6,85.9 c -0.5,-0.1 -0.8,-0.6 -0.7,-1.1 1.2,-4.3 2.6,-8.5 4.2,-12.6 0.2,-0.4 0.3,-0.8 0.2,-1.2 0,-1.5 -1.1,-2.7 -2.4,-3 -0.2,-0.1 -0.5,-0.1 -0.7,-0.1 -1.3,0 -2.4,0.8 -2.9,1.9 -4.6,11.1 -7.4,23 -8.3,35.2 -0.1,1.5 0.9,2.9 2.4,3.2 0.2,0.1 0.4,0.1 0.6,0.1 1.6,0.1 3.1,-1.4 3.2,-3 0.3,-4 0.8,-8.1 1.6,-12.1 0.1,-0.5 0.6,-0.8 1.1,-0.7 L 24.4,96 c 0.5,0.1 0.8,0.6 0.7,1.1 -1,5.6 -1.5,11.3 -1.5,17 z"
     id="path30"
     style="fill:#ffc0c0;fill-opacity:0.7647059;stroke-width:1.48796785" /></g><g
   transform="matrix(0.73374265,0,0,0.73374265,-6.9870949,-6.6772359)"
   style="fill:#ffc0c0;fill-opacity:0.7647059;stroke-width:1.36287546"
   id="g64">
		<path
   inkscape:connector-curvature="0"
   transform="translate(-0.0068756)"
   id="path32"
   d="m 118.08984,70.453125 c -1.27031,-0.0031 -2.5332,0.04648 -3.7832,0.146484 0.3,1.4 3.30039,1.29961 2.90039,2.59961 -0.1,0.3 -0.6,0.500781 -0.5,0.800781 0.1,0.2 0.30039,0.300781 0.40039,0.300781 0.2,0.1 0.39961,0.199219 0.59961,0.199219 0.1,0 0.0992,0.09961 0.19922,0.09961 0.1,0.1 0.2,0.4 0,0.5 -0.1,0.1 -0.19883,0.09961 -0.29883,0.09961 h -0.90039 c -0.5,0 0,0.3 0,0.5 0.1,0.3 -0.30078,0.401172 -0.30078,0.701172 0,0.3 0.40117,0.5 0.70117,0.5 1,0.2 2.09961,-0.0012 3.09961,-0.201172 0.6,-0.2 1.20078,-0.398438 1.80078,-0.398438 h 0.0996 c 0.1,0.5 0.2,1 0,1.5 -0.2,0.8 -0.79961,1.5 -1.59961,2 -0.4,0.3 -1.00156,0.5 -1.10156,1 0,0.3 0.20117,0.7 0.20117,1 0.1,0.3 0,0.6 0,1 0.1,1 1.4,1.8 2.5,1.5 0,0 0.50039,0.09922 0.90039,-0.300781 0.4,-0.4 0.69961,-0.899219 1.09961,-1.199219 1.4,-1 3.59883,-0.0012 5.29883,-0.701172 0.3,-0.1 0.50078,-0.30039 0.80078,-0.40039 0.6,-0.2 1.3,-0.199219 2,-0.199219 1.3,0.1 2.60078,0.400781 3.80078,0.300781 1.8,-0.1 0.3,-1.40039 -0.5,-1.90039 -0.2,-0.1 -0.30039,-0.200391 -0.40039,-0.400391 0,-0.2 0.29961,-0.400781 0.59961,-0.300781 0.3,0.1 0.39922,0.30039 0.69922,0.40039 0.5,0.3 1.20078,0.3 1.80078,0 0.5,-0.3 0.89922,0.09961 1.19922,-0.40039 0.2,-0.2 1.10039,-0.09883 1.40039,-0.298828 0.2,-0.1 4.8,1.5 5,1.5 h 0.20117 c -4.7,-3.8 -10.20039,-6.700391 -16.40039,-8.400391 -3.825,-1.05 -7.70664,-1.5375 -11.51758,-1.546875 z m -10.38281,0.746094 C 95.207031,74.099219 84.407422,82.3 78.607422,94 c 0.8,0.6 1.498828,0.600391 2.298828,0.400391 0.8,-0.5 1.101172,-0.49961 1.201172,-0.09961 0,0.3 0.09922,0.498828 0.199219,0.798828 0.3,0.7 0.899609,1.29961 1.099609,2.09961 0.1,0.5 0.201172,1.101562 0.201172,1.601562 v 0.5 c 0.1,0.3 0.3,0.498828 0.5,0.798829 0.3,0.4 0.6,0.79961 1,1.09961 0.4,0.4 0.798828,0.60117 1.298828,0.70117 0.3,0 0.7,-0.1 1,0 0.5,0.1 0.8,0.50039 1,0.90039 0.1,0.2 0.200391,0.4 0.400391,0.5 0.2,0.1 0.3,0.0992 0.5,0.19922 0.8,0.2 1.199609,0.89961 1.599609,1.59961 0.2,0.3 0.300781,0.50078 0.300781,0.80078 0,0.1 -3.9e-4,0.19883 0.09961,0.29883 0.1,0.1 0.101171,0.20078 0.201171,0.30078 l 0.699219,0.69922 c 0.1,0.1 0.200391,0.20078 0.400391,0.30078 0.2,0.1 0.3,0.19922 0.5,0.19922 0.3,0.1 0.60039,0.1 0.90039,0 0.200001,0 0.39961,-0.1 0.59961,0 0.3,0.1 0.5,0.40117 0.5,0.70117 0.2,1.7 -1.000391,1.99922 -1.900391,3.19922 -0.9,1.3 -1.100781,2.9 -0.800781,4.5 0.6,2.9 4.401562,5.60039 4.101562,8.40039 -0.1,0.7 -0.401171,1.4 -0.201171,2 0.3,0.8 -0.09961,1.7 -0.09961,2.5 v 1.30078 c 0,1.4 -0.699218,2.69961 -0.699219,4.09961 0,0.6 0.09844,1.19883 0.398438,1.79883 0.1,0.2 0.201172,0.3 0.201172,0.5 0,0.2 -0.101172,0.40156 -0.201172,0.60156 -0.1,0.4 0.2,0.79961 0,1.09961 -0.2,0.3 -0.6,0.39922 -0.5,0.69922 0,0.2 0.100781,0.30039 0.300781,0.40039 0.3,0.3 0.599219,0.69922 0.699219,1.19922 0.2,0.4 0.3,0.90078 0.5,1.30078 0.2,0.4 0.601562,0.80039 1.101562,0.90039 h 0.298829 c 0.3,-0.2 0.300781,-0.60039 0.300781,-0.90039 0,-0.3 0.09883,-0.60078 0.298828,-0.80078 0.2,-0.2 0.501563,-0.39922 0.601562,-0.69922 0.1,-0.5 -0.400781,-0.90078 -0.300781,-1.30078 -0.1,-0.2 -0.1,-0.49922 0,-0.69922 0.2,-0.3 0.5,-0.50078 0.5,-0.80078 0,-0.3 -0.299219,-0.7 -0.199219,-1 0,-0.1 0.09922,-0.19922 0.199219,-0.19922 h 0.199219 c 0.2,0.1 0.40156,0.19961 0.60156,0.0996 0.2,-0.1 0.19883,-0.49922 0.29883,-0.69922 0.1,-0.2 0.39961,-0.19961 0.59961,-0.0996 0.2,0 0.40117,0.0996 0.70117,0.0996 0.3,0 0.49922,-0.10078 0.69922,-0.30078 0.1,-0.1 0.20117,-0.3 0.20117,-0.5 0,-0.1 -0.10156,-0.30039 -0.10156,-0.40039 -0.1,-0.3 -0.19883,-0.49883 -0.29883,-0.79883 0,-0.1 -0.1,-0.30039 0,-0.40039 0.1,-0.2 0.49922,-0.2 0.69922,0 0.3,0.1 0.60078,0.29922 0.80078,0.19922 0.2,0 0.3,-0.0992 0.5,-0.19922 0.2,-0.1 0.49922,-0.20039 0.69922,-0.40039 0.5,-0.6 1.49961,-0.9 2.09961,-1.5 0.6,-0.7 0.10078,-2 0.80078,-2.5 0.1,-0.1 0.20078,-0.0996 0.30078,-0.0996 1.1,-0.2 2.09961,0.19961 3.09961,-0.40039 1.2,-0.7 1.39922,-2.30039 1.69922,-3.40039 0.1,-0.4 0.10039,-0.79961 0.40039,-1.09961 0.1,-0.1 0.30039,-0.19883 0.40039,-0.29883 0.3,-0.2 0.49883,-0.60039 0.79883,-0.90039 0.2,-0.3 0.30156,-0.50117 0.60156,-0.70117 0.2,-0.1 0.39961,-0.0992 0.59961,-0.19922 0.5,-0.2 0.8,-0.90039 0.5,-1.40039 0,0 3.9e-4,-0.0996 -0.0996,-0.0996 -0.1,-0.1 -0.20117,-0.0996 -0.20117,-0.0996 h -1.19922 c -0.1,0 -0.20078,3.9e-4 -0.30078,-0.0996 -0.1,-0.1 -0.19922,-0.20039 -0.19922,-0.40039 -0.3,-0.8 -1.00117,-1.30039 -1.70117,-1.90039 -0.2,-0.1 -0.3,-0.19922 -0.5,-0.19922 -0.2,0 -0.39961,0.0996 -0.59961,0.0996 -0.2,0.1 -0.49961,0.10039 -0.59961,-0.0996 -0.1,-0.1 -0.0996,-0.3 -0.0996,-0.5 v -0.20117 c 0,-0.1 -0.10117,-0.19883 -0.20117,-0.29883 -0.3,-0.2 -0.79961,-0.20156 -1.09961,-0.10156 -0.1,0.1 -0.20039,0.20117 -0.40039,0.20117 -0.1,0.1 -0.19883,-0.0996 -0.29883,-0.0996 -0.1,0 -0.30039,-0.10117 -0.40039,-0.20117 -0.1,-0.1 -0.1,-0.30039 0,-0.40039 0.1,-0.1 0.30039,3.9e-4 0.40039,-0.0996 0.2,-0.1 0.10039,-0.4 -0.0996,-0.5 -0.2,-0.1 -0.40156,-0.1 -0.60156,0 -0.2,0.1 -0.3,0.20078 -0.5,0.30078 h -0.19922 c -0.2,0 -0.30078,-0.20039 -0.30078,-0.40039 0,-0.2 0.10078,-0.30039 0.30078,-0.40039 0.1,-0.1 0.30039,-0.19883 0.40039,-0.29883 0.2,-0.2 0.19961,-0.60039 0.0996,-0.90039 -0.2,-1 -0.79922,-1.80039 -1.69922,-2.40039 -0.2,-0.1 -0.3,-0.20078 -0.5,-0.30078 -0.2,-0.1 -0.3,-0.3 -0.5,-0.5 -0.4,-0.3 -0.90117,-0.6 -1.20117,-1 -0.3,-0.3 -0.59883,-0.7 -0.79883,-1 l -0.30078,-0.29883 c -0.4,-0.3 -0.90078,-0.20078 -1.30078,-0.30078 -0.3,-0.1 -0.59883,-0.39961 -0.79883,-0.59961 -0.2,-0.3 -0.50078,-0.49922 -0.80078,-0.69922 -0.3,-0.1 -0.80039,-0.10078 -0.90039,0.19922 -0.1,0.2 -0.09961,0.39961 -0.09961,0.59961 0,0.2 7.81e-4,0.49961 -0.199219,0.59961 -0.3,0.1 -0.601172,-0.0984 -0.701172,-0.39844 0,-0.3 0.100781,-0.60078 0.300781,-0.80078 0.1,-0.1 0.199219,-0.20078 0.199219,-0.30078 0,-0.1 3.91e-4,-0.29883 -0.09961,-0.29883 H 98.60744 c -0.4,0 -0.79961,0.3 -1.09961,0.5 -0.4,0.3 -0.90039,0.59922 -1.40039,0.69922 -0.2,0 -0.3,0.1 -0.5,0 -0.3,-0.1 -0.3,-0.39961 -0.5,-0.59961 -0.2,-0.1 -0.501172,-0.0996 -0.701172,-0.0996 -0.6,0 -1.1,-0.19961 -1.5,-0.59961 -0.3,-0.4 -0.399219,-1 -0.199219,-1.5 0.1,-0.2 0.300391,-0.40156 0.400391,-0.60156 0.1,-0.2 0.2,-0.49922 0,-0.69922 -0.3,-0.5 -1.19961,-0.29922 -1.59961,-0.69922 -0.299999,-0.3 -0.201562,-0.7 -0.101562,-1 0.2,-0.3 0.500781,-0.50078 0.800781,-0.80078 0.1,-0.1 0.199219,-0.20078 0.199219,-0.30078 0.1,-0.3 -0.299609,-0.49961 -0.599609,-0.59961 -0.3,-0.100001 -0.700391,-0.100391 -0.900391,0.0996 -0.1,0.1 -0.09922,0.20078 -0.199219,0.30078 -0.1,0.2 -0.399609,0.30039 -0.599609,0.40039 -0.8,0.2 -1.800781,-0.10078 -2.300781,-0.80078 -0.2,-0.200001 -0.4,-0.500391 -0.5,-0.900391 -0.1,-0.4 -3.91e-4,-0.799219 0.09961,-1.199219 0.1,-0.4 0.3,-0.900781 0.5,-1.300781 0.3,-0.6 0.700781,-1.1 1.300781,-1.5 0.6,-0.4 1.3,-0.6 2,-0.5 0.3,0.1 0.600391,0.30039 0.900391,0.40039 0.4,0.2 0.900391,0.401172 1.40039,0.201172 L 94.107422,95 c 0.4,-0.1 0.899219,0.100391 1.199219,0.400391 0.5,0.4 1.100781,0.8 1.300781,1.5 0.1,0.4 -0.1,0.799218 0,1.199218 0,0.1 0.09922,0.300782 0.199219,0.300782 0.2,0 0.30039,-0.101172 0.40039,-0.201172 0.6,-0.7 0.399219,-1.69961 0.699219,-2.59961 0,-0.1 0.101172,-0.30039 0.201172,-0.40039 0.1,-0.1 0.198828,-0.09961 0.298828,-0.09961 0.4,0 0.701563,-0.09961 1.101562,-0.09961 0.3,0 0.598438,-0.09922 0.898438,-0.199219 0.3,-0.1 0.50117,-0.3 0.70117,-0.5 0.4,-0.4 0.80039,-0.9 0.90039,-1.5 0,-0.1 -3.9e-4,-0.200781 0.0996,-0.300781 0.1,-0.1 0.19922,-0.09961 0.19922,-0.09961 0.6,-0.2 1.20117,-0.100391 1.70117,-0.400391 0.5,-0.4 1.19883,-0.700781 1.79883,-0.800781 0.3,-0.1 0.60078,-0.09922 0.80078,-0.199219 0.2,-0.1 0.30039,-0.200781 0.40039,-0.300781 0.5,-0.3 1.19883,-0.498438 1.79883,-0.398438 0.3,0 0.60117,0.2 0.70117,0.5 0.4,0.2 0.89883,0.199219 1.29883,0.199219 0.4,0 0.80117,3.91e-4 1.20117,-0.09961 0.3,0 0.59961,-0.100782 0.59961,-0.300782 0,-0.1 -0.10117,-0.30039 -0.20117,-0.40039 -0.1,-0.1 -0.3,-0.09922 -0.5,-0.199219 -0.2,-0.1 -0.49922,-0.09922 -0.69922,-0.199219 -0.1,0 -0.30039,-0.101562 -0.40039,-0.101562 -0.1,-0.1 -0.19922,-0.198438 -0.19922,-0.398438 0.1,-0.2 0.30039,-0.20039 0.40039,-0.40039 0.1,-0.2 -0.10078,-0.5 -0.30078,-0.5 -0.2,0 -0.49922,-3.91e-4 -0.69922,0.09961 -0.2,0.1 -0.40117,0.199219 -0.70117,0.199219 -0.2,0 -0.5,-0.198438 -0.5,-0.398438 0,-0.2 0.3,-0.30039 0.5,-0.40039 1.3,-0.3 2.7,-0.100782 4,0.199218 0.6,0.1 1.3,0.301172 2,0.201172 0.7,0 1.30117,-0.301172 1.70117,-0.701172 0.1,-0.1 0.2,-0.4 0,-0.5 h -0.20117 c -0.6,-0.1 -1.19922,7.82e-4 -1.69922,-0.199218 0.6,0.2 1.89922,-1.600782 0.69922,-2.800782 -0.4,-0.2 -0.59961,-0.299218 -1.09961,-0.199218 -0.5,0.1 -1.10078,-0.1 -1.30078,-0.5 -0.1,-0.3 -0.0992,-0.500782 -0.19922,-0.800782 -0.2,-0.7 -1.29961,-0.999218 -2.09961,-0.699218 -0.7,0.3 -1.20078,0.90039 -1.80078,1.40039 -1.1,1 -2.40039,1.898438 -3.90039,2.398438 -0.2,0.1 -0.3,0.101562 -0.5,0.101562 -0.6,-0.1 -0.29961,-2.101562 -0.59961,-2.601562 -0.4,-0.6 -2.59922,-0.799219 -1.69922,-2.199219 0.1,-0.2 0.3,-0.300391 0.5,-0.400391 0.5,-0.3 1.09922,-0.599218 1.69922,-0.699218 0.4,0 1.20078,0.199218 1.30078,-0.300782 0,-0.1 0.19883,-0.199218 0.29883,-0.199218 0.3,0 0.7,0.09922 1,0.199218 h 0.30078 c 0.3,-0.1 7.8e-4,-0.399609 0.30078,-0.599609 0.2,-0.1 0.39961,0 0.59961,0 0.7,0.1 1.49922,0.300391 2.19922,0.400391 0.3,0.1 0.60039,0.1 0.90039,0 0.3,-0.1 0.59961,-0.29961 0.59961,-0.59961 0,-0.3 -0.29922,-0.601562 -0.69922,-0.601562 -0.3,-0.1 -0.7,0.0012 -1,0.201172 -0.3,0.1 -0.79961,0.3 -1.09961,0 -0.2,-0.2 0.0988,-0.49961 -0.20117,-0.59961 -0.1,-0.1 -0.19883,-0.0016 -0.29883,-0.101562 -0.1,-0.1 -0.1,-0.298438 0,-0.398438 0.1,-0.1 0.39844,-0.100781 0.39844,-0.300781 0,-0.1 -0.0988,-0.199219 -0.29883,-0.199219 -0.5,-0.1 -1,-0.1 -1.5,0 0,0.3 0.19961,0.598828 0.0996,0.798828 -0.1,0.1 -0.0992,0.09961 -0.19922,0.09961 -0.3,0.1 -0.7,0.301172 -1,0.201172 -0.2,0 -0.10078,-0.900391 -0.30078,-0.900391 -0.6,-0.2 -1.20078,-1.6 -0.30078,-3 0.6,-1.1 2.30078,-1.900781 1.80078,-2.800781 z m 5.53711,4.451172 c -0.2875,-0.025 -0.53711,3.9e-4 -0.53711,0.15039 0,0.04938 0.0138,0.09861 0.0352,0.146485 0,0 0,0.002 0,0.002 -0.0181,0.04461 -0.0352,0.09077 -0.0352,0.15039 0,0.1 0.20039,0.200782 0.40039,0.300782 0.2,0.1 0.39922,0.20039 0.69922,0.40039 l 0.59961,0.298828 c 0.2,0.1 1.4,0.2 1.5,0 0.0109,-0.03274 0.005,-0.06339 -0.006,-0.09375 0.001,-0.0025 0.005,-0.0033 0.006,-0.0059 0.1,-0.3 -0.8,-0.499609 -1,-0.599609 -0.4,-0.1 -0.59844,-0.39961 -0.89844,-0.59961 -0.15,-0.05 -0.47617,-0.12539 -0.76367,-0.15039 z m -1.03711,1.548828 c -0.34781,0 -0.68698,0.290634 -0.63086,0.568359 -0.0369,0.150401 0.0398,0.307239 0.33008,0.431641 0.2,0.1 0.50117,0.1 0.70117,0 0.2,-0.1 0.39961,-0.2 0.59961,0 0.1,0.1 0.0992,0.200781 0.19922,0.300781 0.2,0.4 0.80117,0.399219 1.20117,0.199219 0.1,-0.1 0.19883,-0.09961 0.29883,-0.09961 0.2,0 0.4,0.200391 0.5,0.400391 0.1,0.2 0.10117,0.399609 0.20117,0.599609 0.1,0.2 0.39961,0.3 0.59961,0.5 0.1838,0.0919 0.3601,0.272401 0.38867,0.533203 C 116.56479,80.820849 116.29607,81 116.10742,81 c -0.2,0 -0.50117,7.81e-4 -0.70117,-0.199219 -0.1,-0.1 -0.29844,-0.201172 -0.39844,-0.201172 h -0.40039 c -0.3,0 -0.6,0.09961 -1,0.09961 -0.1,0 -0.20078,0.0016 -0.30078,0.101562 -0.05,0.05 -0.0496,0.124219 -0.0371,0.199219 -0.0375,0.103125 -0.0379,0.225781 0.0371,0.300781 0.1,0.1 0.20078,0.09922 0.30078,0.199219 0.4,0.2 0.8,0.400781 1,0.800781 0,0.1 -3.9e-4,0.298438 0.0996,0.398438 0.2,0.4 0.50039,0.601172 0.90039,0.701172 0.0572,-0.11439 0.0727,-0.257996 0.0645,-0.400391 0.008,-0.142395 -0.007,-0.286001 -0.0645,-0.400391 0,-0.07902 -0.0519,-0.157308 -0.0781,-0.236328 0.0484,-0.05579 0.19391,-0.04632 0.27734,0.03711 l 0.59961,0.298828 c 0.2,0.1 0.50156,0.10039 0.60156,-0.09961 0.0424,-0.08486 0.0457,-0.169044 0.0391,-0.253906 0.0361,-0.148625 0.0352,-0.296688 -0.0391,-0.445312 0,-0.130397 0.0113,-0.248881 0.0391,-0.351563 0.0196,-0.01645 0.0341,-0.03563 0.0605,-0.04883 0.2,-0.1 0.39961,0.09922 0.59961,0.199219 0.3,0.1 0.60039,0.301172 0.90039,0.201172 0.3,0 0.5,-0.3 0.5,-0.5 -0.002,-0.0043 -0.007,-0.0074 -0.01,-0.01172 0.0276,-0.0667 0.0384,-0.132122 0.01,-0.189453 -0.1742,-0.261308 -0.72697,-0.446086 -0.80078,-0.753907 0.002,-0.01536 -0.004,-0.02895 0,-0.04492 0,-0.2 0.20117,-0.3 0.20117,-0.5 0,-0.01409 -0.0128,-0.02398 -0.0156,-0.03711 0.005,-0.02115 0.0156,-0.03889 0.0156,-0.0625 0,-0.3 -0.40156,-0.30039 -0.60156,-0.40039 -0.6,-0.2 -0.89961,-0.99961 -1.59961,-1.09961 -0.3,0 -0.60039,0.1 -0.90039,0 -0.4,-0.1 -0.59844,-0.501562 -0.89844,-0.601562 -0.3,-0.1 -0.7,3.9e-4 -1,-0.09961 -0.5,0 -0.90078,-0.40039 -1.30078,-0.40039 z m -3.50781,2.958984 c -0.0359,0.0047 -0.0668,0.01602 -0.0918,0.04102 -0.0862,0.08624 -0.23221,0.244855 -0.14648,0.351562 -0.0252,0.05647 -0.0298,0.110095 0.0469,0.148438 0.4,0.3 0.99844,7.81e-4 1.39844,0.300781 0.2,0.1 0.40078,0.800391 0.80078,0.400391 v -0.09961 c 0.1,-0.1 0.1,-0.20039 0,-0.40039 -0.1,0 -0.20078,-0.101172 -0.30078,-0.201172 -0.4,-0.2 -0.79883,-0.4 -1.29883,-0.5 -0.15,0 -0.30039,-0.05508 -0.4082,-0.04102 z m 39.10742,1.441406 c -0.4,0 -0.89883,0.300391 -1.29883,0.400391 -0.5,0.3 -0.60078,0.300391 -0.80078,0.400391 -0.1,0.1 -0.19922,0.198828 -0.19922,0.298828 -0.3,0.5 -0.9,0.9 -1.5,1 -0.5,0.1 -1.10156,-0.09883 -1.60156,0.201172 -0.5,0.3 -0.7,0.9 -0.5,1.5 0.2,0.6 0.70078,0.798828 1.30078,0.798828 0.2,0 0.49922,-0.1 0.69922,0 0.3,0.1 0.40039,0.401172 0.40039,0.701172 0,0.3 0.001,0.60039 0.20117,0.90039 0,0.1 0.0992,0.199219 0.19922,0.199219 h 0.30078 c 0.4,-0.1 0.69844,-0.2 0.89844,-0.5 0.1,-0.1 0.10117,-0.300391 0.20117,-0.400391 0.3,-0.2 0.80039,0.0012 0.90039,-0.298828 V 86.5 c -0.1,-0.3 -0.20078,-0.500781 -0.30078,-0.800781 -0.1,-0.3 -7.8e-4,-0.598828 0.19922,-0.798828 0.1,-0.1 0.20078,-0.201172 0.30078,-0.201172 l 1.5,-0.898438 c 0.1,-0.1 0.30039,-0.201562 0.40039,-0.101562 0.1,0.1 0.1,0.3 0,0.5 -0.3,0.5 -1.09961,0.80039 -1.09961,1.40039 0,0.4 0.39883,0.700391 0.79883,0.900391 0.5,0.2 1,0.299219 1.5,0.199219 0.3,0 0.60078,-0.1 0.80078,0 0.2,0.1 0.39961,0.501172 0.0996,0.701172 -0.1,0.1 -0.20078,0.09961 -0.30078,0.09961 -0.6,0.1 -1.09922,7.81e-4 -1.69922,-0.199219 -0.1,0 -0.30039,-0.101562 -0.40039,-0.101562 -0.1,0 -0.29883,0.101172 -0.29883,0.201172 0,0.2 0.19961,0.399609 0.0996,0.599609 -0.1,0.2 -0.39961,0.1 -0.59961,0 -0.2,-0.1 -0.50156,-0.299609 -0.60156,-0.09961 -0.1,0.1 -0.0996,0.198828 -0.0996,0.298828 0,0.3 7.8e-4,0.501172 -0.19922,0.701172 -0.2,0.2 -0.50078,0.298828 -0.80078,0.298828 -0.3,0 -0.59883,-0.198828 -0.79883,-0.298828 -0.1,-0.1 -0.20039,-0.09961 -0.40039,-0.09961 -0.2,0 -0.39961,0.199219 -0.59961,0.199219 -0.7,0.2 -1.3,-0.499609 -2,-0.599609 -0.2,0 -0.4,-3.91e-4 -0.5,0.09961 l -1.5,0.300781 c -0.4,0.1 -0.80117,0.39961 -1.20117,0.59961 -0.9,0.6 -2.09961,0.499609 -3.09961,0.599609 -0.3,0 -0.59961,0.200391 -0.59961,0.400391 0,0.2 0.0988,0.30039 0.29883,0.40039 0.2,0.2 0.50156,0.498828 0.60156,0.798828 0.1,0.3 0.0984,0.700391 -0.10156,0.900391 -0.2,0.3 -0.49883,0.400391 -0.79883,0.400391 -0.3,0 -0.60039,-0.101172 -0.90039,-0.201172 -0.1,0 -0.20078,-0.09961 -0.30078,-0.09961 -0.1,-0.1 -0.0992,-0.198828 -0.19922,-0.298828 -0.1,-0.2 -0.3,-0.301172 -0.5,-0.201172 -0.2,0 -0.40039,0.200391 -0.40039,0.400391 -0.1,0.2 0,0.399609 0,0.599609 0,0.6 -0.59883,0.99961 -0.79883,1.59961 V 95 c 0,0.1 0.0992,0.200781 0.19922,0.300781 0.3,0.2 0.50078,0.499219 0.80078,0.699219 0.1,0.1 0.3,0.300781 0.5,0.300781 0.3,0 0.49883,-0.201172 0.79883,-0.201172 0.3,0 0.60039,0.300782 0.90039,0.300782 h 0.0996 c 0.1,0 0.0996,-0.101172 0.0996,-0.201172 0.2,-0.7 0.8,-1.3 1.5,-1.5 0.3,-0.1 0.70039,-0.09844 0.90039,-0.398438 0.2,-0.3 0.29961,-0.80039 0.59961,-0.90039 0.5,-0.2 1.00156,0.60039 1.60156,0.40039 0.2,-0.1 0.39961,-0.30039 0.59961,-0.40039 0.3,-0.1 0.59883,0.20039 0.79883,0.40039 0.2,0.3 0.5,0.598438 0.5,0.898438 0,0.3 -0.0984,0.70039 0.10156,0.90039 0.3,0.4 0.89883,7.82e-4 1.29883,0.300782 0.2,0.2 0.0996,0.60039 0.0996,0.90039 -0.1,0.3 -0.0988,0.698438 0.20117,0.898438 0.3,0.1 0.49961,-0.09844 0.59961,-0.398438 0.1,-0.3 3.9e-4,-0.600781 -0.0996,-0.800781 0,-0.1 0.19883,0 0.29883,0 0.1,0 0.10156,-0.09922 0.10156,-0.199219 0,-0.1 -0.10117,-0.201172 -0.20117,-0.201172 -0.4,-0.3 -0.79922,-0.699609 -1.19922,-1.099609 -0.4,-0.4 -0.70117,-0.9 -0.70117,-1.5 0,-0.1 0.10117,-0.199219 0.20117,-0.199219 0,0 0.0996,-3.9e-4 0.0996,0.09961 0.6,0.5 1.30039,1.099609 1.90039,1.599609 0.2,0.1 0.30039,0.3 0.40039,0.5 0.1,0.3 0,0.7 0,1 -0.1,0.3 -0.001,0.700391 0.29883,0.900391 0.2,0.1 0.4,0.09961 0.5,0.09961 0.2,0 0.40039,0.100781 0.40039,0.300781 -0.2,0.3 -0.70078,0.2 -0.80078,0.5 -0.2,0.5 0.60039,0.599219 0.90039,0.699219 0.6,-0.4 0.70078,-1.199219 0.30078,-1.699219 -0.1,-0.2 -0.30117,-0.4 -0.20117,-0.5 0.1,-0.1 0.30039,-0.101562 0.40039,-0.101562 0.1,0 0.30039,0.101562 0.40039,0.101562 0.1,0 0.20078,-0.101562 0.30078,-0.101562 0.2,0 0.39961,0.101172 0.59961,0.201172 0.2,0.1 0.39961,0.298828 0.59961,0.298828 0.2,0 0.49961,-0.09883 0.59961,-0.298828 0,-0.2 -0.0996,-0.3 -0.0996,-0.5 -0.2,-0.6 0.30078,-1.201172 0.80078,-1.701172 0.3,-0.2 0.59844,-0.5 0.89844,-0.5 0.3,0 0.70156,0.301172 0.60156,0.701172 0,0.1 -0.10156,0.198828 -0.10156,0.298828 -0.1,0.2 0.10039,0.5 0.40039,0.5 0.2,0.1 0.50117,0 0.70117,0 -0.1,-0.3 -0.20039,-0.8 0.0996,-1 h 0.29883 c 0.3,0 0.50117,-0.198828 0.70117,-0.298828 0.2,-0.1 0.49922,-0.1 0.69922,0 0.1,0.3 -0.10039,0.699218 -0.40039,0.699218 -0.2,0 -0.39961,-0.1 -0.59961,0 -0.2,0.1 -0.19961,0.4 -0.0996,0.5 0.1,0.2 0.30039,0.300391 0.40039,0.400391 0.6,0.4 0.99883,0.999609 1.29883,1.599609 0.1,0.1 0.10156,0.300391 0.10156,0.400391 -0.1,0.3 -0.40117,0.300781 -0.70117,0.300781 -0.4,0 -0.79961,-7.81e-4 -1.09961,-0.300781 -0.1,-0.1 -0.0992,-0.200781 -0.19922,-0.300781 -0.1,-0.1 -0.20039,-0.199219 -0.40039,-0.199219 -0.6,-0.2 -1.20117,-0.399219 -1.70117,-0.199219 -0.2,0.1 -0.3,0.19961 -0.5,0.09961 -0.2,0 -0.29922,-0.200391 -0.19922,-0.400391 -0.3,0 -0.60078,0.100391 -0.80078,0.400391 L 149.707,97.59961 c -0.1,0 -0.20078,3.91e-4 -0.30078,-0.09961 -0.2,-0.1 -0.3,-0.199219 -0.5,-0.199219 -0.2,0 -0.39844,0.09883 -0.39844,0.298828 0,0.2 0.19922,0.39961 0.19922,0.59961 v 0.40039 c 0,0.6 0.59961,1.000391 1.09961,0.900391 0.3,-0.1 0.60078,-0.299609 0.80078,-0.09961 l 0.29883,0.298828 c 0.2,0.2 0.60039,0.101562 0.90039,0.101562 0.3,-0.1 0.70078,-0.0012 0.80078,0.29883 V 100.5 c -0.1,0.6 -0.20039,1.09922 -0.40039,1.69922 0,0.1 3.9e-4,0.20117 -0.0996,0.20117 -0.1,0.1 -0.10117,0.0996 -0.20117,0.0996 -0.3,0.1 -0.59844,0.19961 -0.89844,0.0996 -0.5,0 -0.90039,-0.29883 -1.40039,-0.29883 h -0.80078 c -1.1,-0.1 -1.69883,-1.30117 -2.79883,-1.70117 -0.2,-0.1 -0.50156,-0.1 -0.60156,0 -0.1,0.1 -0.19883,0.30039 -0.29883,0.40039 -0.2,0.4 -0.50039,0.69922 -0.90039,0.69922 -0.6,0 -0.89922,-0.69922 -1.19922,-1.19922 -0.3,-0.4 -0.70117,-0.700781 -1.20117,-0.800781 -0.3,-0.1 -0.69883,-0.09844 -0.79883,-0.398438 V 99 c 0.1,-0.3 0.19922,-0.500781 0.19922,-0.800781 0,-0.3 7.8e-4,-0.598828 -0.19922,-0.798828 -0.4,-0.4 -1.10117,0.1 -1.70117,0 l -0.59961,-0.300782 c -0.5,-0.3 -1.09922,-0.299609 -1.69922,-0.09961 -0.6,0.1 -1.10117,0.300781 -1.70117,0.300781 -0.6,0 -1.19883,-0.40039 -1.79883,-0.40039 -0.3,0 -0.60039,0.09883 -0.90039,0.298828 -0.3,0.1 -0.60078,0.20039 -0.80078,0.40039 -0.1,0.1 -0.19883,0.101172 -0.29883,0.201172 -0.4,0.4 -0.20156,1.2 -0.60156,1.5 -0.1,0.1 -0.29844,0.09922 -0.39844,0.199219 -0.7,0.2 -1.40039,0.5 -1.90039,1.000001 -0.6,0.6 -1.00117,1.40078 -1.70117,1.80078 -0.2,0.4 -0.39883,0.79883 -0.29883,1.29883 0,0.2 0.0996,0.40117 0.0996,0.70117 0,0.4 -0.2,0.7 -0.5,1 -0.3,0.3 -0.60078,0.49844 -0.80078,0.89844 -0.3,0.5 -0.29922,1.10117 -0.19922,1.70117 0.1,0.6 0.39922,1.1 0.69922,1.5 0.2,0.3 0.4,0.49883 0.5,0.79883 0.1,0.3 0.20078,0.60078 0.30078,0.80078 0.2,0.4 0.49922,0.7 0.69922,1 0.3,0.4 0.70078,0.80039 1.30078,0.90039 0.3,0.1 0.7,0 1,0 0.8,0 1.60039,0.6 2.40039,0.5 0.4,0 0.69961,-0.20117 1.09961,-0.20117 0.5,-0.1 1.1,7.8e-4 1.5,0.30078 0.1,0 0.0992,0.0992 0.19922,0.19922 0.1,0.2 0.002,0.3 0.10156,0.5 0.1,0.4 0.6,0.4 1,0.5 0.4,0.1 0.79844,0.40078 0.89844,0.80078 0.3,0.8 -0.29844,1.20039 -0.39844,1.90039 -0.1,0.5 -0.10156,0.89883 -0.10156,1.29883 0,0.4 0.002,0.70156 0.10156,1.10156 0.2,0.4 0.5,0.69922 0.5,1.19922 0,0.2 -0.10156,0.4 -0.10156,0.5 0,0.2 0.10156,0.3 0.10156,0.5 0.2,0.7 0.0988,1.49961 -0.20117,2.09961 -0.3,0.7 -0.79883,1.2 -0.79883,2 0,0.9 -0.20078,1.90078 -0.30078,2.80078 0,0.5 -0.1,0.90039 0,1.40039 0.1,0.5 0.30078,1.09961 0.30078,1.59961 0,0.5 -0.20039,1.1 0.0996,1.5 0.1,0.1 0.19883,0.30039 0.29883,0.40039 0.3,0.4 0.40078,0.89844 0.30078,1.39844 -0.1,0.6 -0.6,1.40078 0,1.80078 0.3,0.2 0.69961,0.2 1.09961,0 0.1,0 0.20078,-0.0996 0.30078,-0.0996 0.4,-0.1 0.59961,0.5 1.09961,0.5 h 0.30078 c 1,-0.3 1.99844,-0.9 2.89844,-1.5 0.5,-0.3 1,-0.7 1.5,-1 l 0.30078,-0.30078 c 0.2,-0.2 0.20078,-0.49922 0.30078,-0.69922 0.1,-0.1 0.19844,-0.30078 0.39844,-0.30078 0.3,-0.2 0.60039,-0.3 0.90039,-0.5 0.3,-0.2 0.49961,-0.39883 0.59961,-0.79883 v -0.5 c 0,-0.6 0.40078,-1.10156 0.80078,-1.60156 0.3,-0.3 0.6,-0.49922 1,-0.69922 0.3,-0.2 0.7,-0.39922 1,-0.69922 0.4,-0.4 0.69922,-1.00156 0.69922,-1.60156 0,-1.2 0.40117,-2.29844 0.70117,-3.39844 0.1,-0.3 0.0988,-0.60039 0.29883,-0.90039 0.5,-1.2 1.70078,-1.80039 2.80078,-2.40039 1.7,-1 3.29961,-2.30078 4.59961,-3.80078 0.2,-0.3 0.50078,-0.7 0.30078,-1 -0.2,-0.4 -0.69961,-0.29922 -1.09961,-0.19922 -1,0.2 -2,0.29961 -3,0.0996 -0.2,0 -0.40156,-0.0988 -0.60156,-0.29883 -0.2,-0.2 -0.0996,-0.60078 -0.0996,-0.80078 0,-0.6 -0.49883,-1 -0.79883,-1.5 -0.4,-0.7 -0.70156,-1.50078 -0.60156,-2.30078 0.1,-1.3 -0.59844,-2.69844 -0.89844,-3.89844 -0.1,-0.4 -0.10117,-0.70156 -0.20117,-1.10156 -0.2,-0.4 -0.4,-0.79922 -0.5,-1.19922 -0.1,-0.2 -0.1,-0.39961 0,-0.59961 0.1,-0.2 0.3,-0.30117 0.5,-0.20117 0.2,0.1 0.20117,0.50117 0.20117,0.70117 0,0.1 -3.9e-4,0.0992 0.0996,0.19922 0.2,0.1 0.39961,-0.39883 0.59961,-0.29883 0,1.1 0.19922,2.19922 0.69922,3.19922 0.2,0.5 0.5,1 0.5,1.5 0,0.2 -0.1,0.49922 0,0.69922 0.1,0.3 0.3,0.50117 0.5,0.70117 0.7,0.7 0.80117,1.79883 0.70117,2.79883 v 0.5 c 0.1,0.2 0.20039,0.20078 0.40039,0.30078 0.6,0.3 1.19883,0.3 1.79883,0 1.1,-0.5 2.00117,-0.9 3.20117,-1 0.3,0 0.59883,-0.0992 0.79883,-0.19922 0.4,-0.3 0.6,-0.80117 1,-1.20117 0.2,-0.2 0.50078,-0.30039 0.80078,-0.40039 0,-0.5 -0.0996,-1 -0.0996,-1.5 0,0 -0.10156,3.9e-4 -0.10156,-0.0996 -0.10392,-0.0693 -0.19982,-0.15306 -0.28711,-0.24219 -0.0604,-0.43573 -0.11133,-0.85283 -0.11133,-1.25781 0,0 -0.002,-0.0996 -0.10156,-0.0996 -0.4,-0.4 -0.99844,-0.0992 -1.39844,-0.19922 -0.4,-0.1 -0.70039,-0.5 -0.90039,-1 -0.2,-0.4 -0.3,-0.90117 -0.5,-1.20117 -0.1,-0.2 -0.3,-0.30039 -0.5,-0.40039 -0.2,-0.1 -0.50117,-0.19961 -0.70117,-0.0996 -0.0223,0.0112 -0.0385,0.0371 -0.0606,0.0508 0.0499,-0.16262 0.15561,-0.28103 0.36133,-0.34961 0.2,-0.1 0.49922,-3.9e-4 0.69922,0.0996 0.2,0.1 0.3,0.20039 0.5,0.40039 0.3,0.4 0.4,0.79922 0.5,1.19922 0.2,0.4 0.50039,0.8 0.90039,1 0.4,0.1 1.00078,-0.10078 1.30078,0.19922 0,0 -3.9e-4,0.10156 0.0996,0.10156 -1.5,-10.1 -6.70039,-19.401172 -14.40039,-26.201172 z m -11.5,3.300782 c -0.10982,0 -0.18588,0.06485 -0.25195,0.152343 -0.10229,0.06935 -0.17369,0.200978 -0.24219,0.337891 -0.0934,0.08397 -0.18109,0.164857 -0.23633,0.259766 -0.11025,0.129495 -0.20959,0.269405 -0.26953,0.449218 0,0.2 0.10078,0.49961 0.30078,0.59961 0.2,0.1 0.4,0.3 0.5,0.5 0.1,0.2 3.9e-4,0.500781 -0.0996,0.800781 h -0.10156 c -0.12997,-0.06499 -0.29553,0.0092 -0.45508,0.115234 -0.15517,0.05699 -0.2853,0.168255 -0.34375,0.285157 -0.1,0.2 -0.30117,0.499218 -0.20117,0.699218 0.1,0.1 0.4,0.200782 0.5,0.300782 0.5,0.3 1,0.40039 1.5,0.40039 0.1,0 0.20078,-0.0016 0.30078,-0.101562 0.12542,-0.06271 0.20787,-0.157964 0.2793,-0.25 0.0614,-0.06508 0.1164,-0.120389 0.16211,-0.177735 0.19866,-0.17788 0.46993,-0.28243 0.6582,-0.470703 v -0.03125 c 0.0318,-0.02491 0.0712,-0.04194 0.0996,-0.07031 v -0.09961 c 0,-0.1 -0.0992,-0.09922 -0.19922,-0.199218 l -0.90039,-0.300782 c -0.1,0 -0.0992,3.91e-4 -0.19922,-0.09961 v -0.199219 c 0,-0.2 -3.9e-4,-0.401562 0.0996,-0.601562 0,-0.2 3.9e-4,-0.49961 -0.0996,-0.59961 -0.1,-0.1 -0.30039,-0.09961 -0.40039,-0.09961 -0.0984,0 -0.28988,-0.193405 -0.20117,-0.294922 0.12954,-0.07058 0.31535,-0.05506 0.39453,-0.201172 0.002,-0.001 0.004,-0.0028 0.006,-0.0039 0,0 0.002,-0.002 0.002,-0.002 0.0401,-0.02163 0.0762,-0.05091 0.0996,-0.09766 v -0.201172 c -0.1,-0.2 -0.20078,-0.3 -0.30078,-0.5 -0.1,-0.2 -0.20039,-0.298828 -0.40039,-0.298828 z M 134.50781,86.5 c -0.2,0 -0.20078,0.200781 -0.30078,0.300781 -0.1,0.1 -0.30039,0.09961 -0.40039,0.09961 h -0.0996 c -0.2,0 -0.20039,0.198828 -0.40039,0.298828 0,0 -0.0992,0.101562 -0.19922,0.101562 -0.2,0.1 -0.30117,0.2 -0.20117,0.5 0.0578,0.115625 0.18287,0.165177 0.31641,0.205078 0.0306,0.02127 0.0816,0.02715 0.12304,0.04102 0.0553,0.0166 0.1142,0.02878 0.16211,0.05273 0.11149,0.02787 0.22076,0.02961 0.33008,0.01953 0.31988,-6.58e-4 0.62698,-0.138031 0.86914,-0.21875 0.1,0 0.20078,3.9e-4 0.30078,-0.09961 0.1,-0.1 0.19883,-0.4 0.29883,-0.5 0.1,-0.3 -0.10039,-0.800781 -0.40039,-0.800781 h -0.0996 z m -18.9707,2.892578 c -0.30469,0.05156 -0.68008,0.258203 -0.83008,0.408203 -0.38161,0.228968 -0.41075,0.456721 -0.26562,0.652344 0.1499,0.366511 0.88898,0.646484 1.36523,0.646484 0.3,0 0.50078,-0.09961 0.80078,-0.09961 h 0.19922 c 0.0785,-0.0785 0.0779,-0.157831 0.0332,-0.236328 -0.0132,-0.05695 -0.0332,-0.120275 -0.0332,-0.164063 -0.1,-0.1 -0.19883,-0.09922 -0.29883,-0.199218 -0.5,-0.2 -0.30117,-0.9 -0.70117,-1 -0.075,-0.025 -0.16797,-0.025 -0.26953,-0.0078 z M 95.59375,99.783203 c -0.229687,-0.01406 -0.4625,-0.0074 -0.6875,0.01758 -0.01805,0 -0.04109,0.01016 -0.06055,0.01172 -0.124698,0.0062 -0.250047,0.0201 -0.34375,0.08594 -0.07673,0.03197 -0.158253,0.0645 -0.195312,0.101557 -0.2,0.3 0.100781,0.5 0.300781,0.5 0.02618,0 0.05387,-0.003 0.08008,-0.004 0.0068,3e-4 0.01277,0.004 0.01953,0.004 0.262575,0 0.567192,-0.0397 0.859375,-0.041 0.108901,0.005 0.220985,0.0173 0.339844,0.041 0.2,0 0.4,0.10078 0.5,0.30078 0.1,0.1 0.101563,0.29844 0.101562,0.39844 0.1,0.3 0.29961,0.50156 0.59961,0.60156 l 0.273437,0.0918 c 0.112601,0.0502 0.225291,0.0852 0.337891,0.11133 l 0.289062,0.0957 c 0.200001,0.1 0.39961,0.10117 0.59961,0.20117 0.158267,0.0528 0.257678,0.0732 0.333984,0.0703 0.07973,0.003 0.159455,-0.0172 0.265625,-0.0703 0.1,-0.1 0.1,-0.20078 0,-0.30078 -0.2,-0.3 -0.60039,-0.49922 -0.90039,-0.69922 -0.3,-0.2 -0.498829,-0.50078 -0.798829,-0.80078 -0.468802,-0.4688 -1.181696,-0.686727 -1.90039,-0.714839 -0.0046,-3e-4 -0.009,-0.0017 -0.01367,-0.002 z m 3.664062,2.992187 c -0.175,0 -0.351171,0.025 -0.451171,0.125 -0.06916,0.0692 -0.06983,0.13317 -0.04687,0.19531 -0.106661,0.33575 1.064991,0.51199 1.248039,0.60352 0.40001,0.1 0.89844,0.20117 1.39844,0.20117 h 0.40039 c 0.2,0 0.30078,-0.0996 0.30078,-0.0996 0,-0.0547 -0.0171,-0.10944 -0.043,-0.16211 0.0142,-0.0139 0.0288,-0.0249 0.043,-0.0391 0.1,-0.1 -0.20039,-0.30039 -0.40039,-0.40039 l -0.90039,-0.29883 c -0.4,0 -0.69961,-0.0996 -1.099604,-0.0996 -0.1,0 -0.274218,-0.0254 -0.449219,-0.0254 z m 54.349608,27.52539 c -0.8,0.1 -1.20039,0.99922 -1.90039,1.19922 -0.1,0.1 -0.3,0.0996 -0.5,0.0996 -0.4,0 -0.70039,0.29961 -0.90039,0.59961 -0.2,0.1 -0.29883,0.40156 -0.29883,0.60156 0,0.0203 0.008,0.0323 0.01,0.0508 -0.002,0.0162 -0.01,0.0326 -0.01,0.0488 0,0.18974 0.004,0.29411 0.0898,0.47461 -0.0224,0.38607 -0.21363,0.83728 -0.58985,1.02539 -0.35379,0.25271 -0.52727,0.68369 -0.52343,1.11328 -0.003,0.42852 0.17013,0.88272 0.52343,1.18555 0.2,0.1 0.3,0.20078 0.5,0.30078 0.2,0.1 0.39961,0.1 0.59961,0 0.2,-0.1 0.30039,-0.3 0.40039,-0.5 0.2,-0.4 0.3,-0.79922 0.5,-1.19922 0.2,-0.4 0.59844,-0.80117 0.89844,-1.20117 0.2,-0.2 0.3,-0.49922 0.5,-0.69922 0.3,-0.4 0.7,-0.60039 1,-0.90039 0.37926,-0.37926 0.56682,-1.02581 0.41602,-1.60352 -0.006,-0.0657 -0.005,-0.13141 -0.0156,-0.19726 -0.1,-0.1 -0.0992,-0.19883 -0.19922,-0.29883 -0.1,-0.1 -0.3,-0.0996 -0.5,-0.0996 z m -14.30078,14.29883 c -0.3,0 -0.79883,0.10039 -0.79883,0.40039 -0.1,0.3 0.19883,0.49922 0.29883,0.69922 0.1,0.3 0.19961,0.90078 -0.40039,0.80078 -0.4,-0.1 -0.49883,-0.4 -0.79883,-0.5 -0.3,-0.1 -0.30039,-7.8e-4 -0.40039,-0.30078 0,-0.1 0.0996,-0.3 0.0996,-0.5 -0.2,-0.4 -0.69922,-0.39883 -1.19922,-0.29883 -0.4,0.1 -0.60078,0.2 -0.80078,0.5 -0.2,0.3 -0.29922,0.39883 -0.69922,0.29883 -0.5,-0.2 -0.70117,-0.39961 -1.20117,-0.0996 -0.2,0.1 -0.4,0.3 -0.5,0.5 -0.1,0.1 -0.0988,0.4 -0.29883,0.5 -0.4,0.2 -0.79961,-0.19883 -1.09961,0.20117 -0.3,0.3 -0.10078,0.69844 -0.30078,0.89844 -0.8,1 -2.80078,0.7 -3.30078,2 -0.3,0.7 0.30117,1.4 0.70117,2 0.4,0.6 0.29922,1.3 0.69922,2 0.3,0.5 0.80039,0.60117 1.40039,0.70117 0.8,0.2 1.3,-0.2 2,-0.5 1,-0.4 1.60078,-1.40117 2.80078,-1.20117 0.4,0.1 0.69961,0.30039 1.09961,0.40039 0.2,0.1 0.39961,0.1 0.59961,0 0.2,0 0.4,-0.19922 0.5,-0.19922 h 0.19922 c 2.3,-0.8 4.40039,-2 6.40039,-3.5 -0.1,-0.3 -0.3,-0.60078 -0.5,-0.80078 -0.3,-0.4 -0.60039,-0.79961 -0.90039,-1.09961 -0.2,-0.2 -0.49883,-0.3 -0.79883,-0.5 -0.3,-0.2 -0.3,-0.39922 -0.5,-0.69922 -0.3,-0.4 -1.00078,-0.6 -1.30078,-1 -0.3,-0.4 -0.3,-0.70117 -1,-0.70117 z m -43.982421,5.45898 c -0.398438,-0.009 -1.092188,0.0656 -1.617188,0.14063 4,2.7 8.400779,4.80156 13.300779,6.10156 5.4,1.5 10.79961,1.79883 16.09961,1.29883 -0.7,-0.7 -1.29961,-1.29961 -2.09961,-1.59961 -1.4,-0.4 -2.50039,-0.39961 -3.90039,-1.09961 -0.3,-0.2 -0.50117,-0.70078 -0.70117,-0.80078 -0.3,-0.1 -1.09883,0.1 -1.29883,0 -0.9,-0.6 -0.5,-0.39961 -1,-1.09961 -0.5,-0.7 0.39961,-1.10078 -0.90039,-1.30078 -0.7,-0.2 -0.99922,-0.0988 -1.19922,0.70117 -1.8,0.5 -2.4,-0.8 -4,-1 -0.7,0 -1.30039,0.40039 -1.90039,0.40039 -0.8,0 -1.50117,-0.30078 -2.20117,-0.30078 -1.5,0 -2.19922,1.19961 -3.69922,1.09961 -2.499999,-0.2 -2.599608,-1.7 -4.599608,-2.5 -0.05,-0.025 -0.150391,-0.0379 -0.283203,-0.041 z"
   style="fill:#ffc0c0;fill-opacity:0.7647059;stroke-width:1.34555721" />
		
		
		
		
		
		
		
		
		
		
		
		
		
		
		
	</g>

</svg>