<?xml version="1.0" encoding="UTF-8" standalone="no"?>
<svg
   xmlns:dc="http://purl.org/dc/elements/1.1/"
   xmlns:cc="http://creativecommons.org/ns#"
   xmlns:rdf="http://www.w3.org/1999/02/22-rdf-syntax-ns#"
   xmlns:svg="http://www.w3.org/2000/svg"
   xmlns="http://www.w3.org/2000/svg"
   xmlns:sodipodi="http://sodipodi.sourceforge.net/DTD/sodipodi-0.dtd"
   xmlns:inkscape="http://www.inkscape.org/namespaces/inkscape"
   width="160"
   height="150"
   viewBox="0 0 42.333334 39.6875"
   version="1.1"
   id="svg8"
   sodipodi:docname="stayhome.svg"
   inkscape:version="0.92.5 (2060ec1f9f, 2020-04-08)">
  <sodipodi:namedview
     pagecolor="#ffffff"
     bordercolor="#666666"
     borderopacity="1"
     objecttolerance="10"
     gridtolerance="10"
     guidetolerance="10"
     inkscape:pageopacity="0"
     inkscape:pageshadow="2"
     inkscape:window-width="640"
     inkscape:window-height="480"
     id="namedview10"
     showgrid="false"
     inkscape:zoom="1.5733333"
     inkscape:cx="10.720338"
     inkscape:cy="24.152541"
     inkscape:current-layer="svg8" />
  <defs
     id="defs2" />
  <metadata
     id="metadata5">
    <rdf:RDF>
      <cc:Work
         rdf:about="">
        <dc:format>image/svg+xml</dc:format>
        <dc:type
           rdf:resource="http://purl.org/dc/dcmitype/StillImage" />
        <dc:title />
      </cc:Work>
    </rdf:RDF>
  </metadata>
  <g
     style="fill:#ffc0c0;fill-opacity:0.76444447"
     id="g823">
    <path
       style="fill:#ffc0c0;fill-opacity:0.76444447;stroke-width:0.99999982"
       d="m 21.350019,1.3100489 c -2.681023,1.542745 -4.99728,3.655933 -7.464979,5.513103 -3.803291,3.091891 -7.770884,6.0034501 -11.337147,9.3714941 -1.203035,1.052033 0.06428,1.934574 1.000993,0.715749 5.769289,-4.137927 11.151651,-8.7921801 16.85582,-13.0144091 1.793921,-0.538199 3.092392,1.404526 4.481949,2.253784 1.66095,1.231504 3.259675,2.697474 5.103989,3.59192 0.358801,-1.729706 0.06538,-3.534019 0.214982,-5.278077 0.300011,-0.383826 0.843235,0.05085 1.23033,0.03784 1.941007,-0.147735 1.094147,2.117655 1.389879,3.252527 0.08521,1.602455 0.161939,3.2053481 0.242934,4.8080201 2.108225,1.695653 4.049489,3.682619 6.5,4.875 1.774126,-0.30992 -0.843066,-2.119383 -1.450615,-2.74113 -1.15043,-1.07081 -2.412518,-2.053082 -3.504858,-3.172235 C 34.46112,8.6957799 34.3674,5.8598049 34.238691,3.0287969 h -5.66211 c -0.192194,0.994034 -0.07604,2.144063 -0.629005,3.000318 -1.390955,-0.325621 -2.455109,-1.789241 -3.708417,-2.50918 -0.962696,-0.737085 -1.924522,-1.475317 -2.88914,-2.209888 z m 5.410156,12.0197921 c -1.949004,-0.08971 -3.582283,1.231585 -4.596699,2.782628 -1.41875,1.814857 -2.009565,-1.540711 -3.279589,-1.950985 -2.305379,-1.546382 -6.184851,-0.796556 -6.936822,2.137445 -0.667169,2.119586 -0.321442,4.663624 1.365844,6.226224 2.593272,2.980901 5.394688,5.778939 8.400391,8.34375 2.887924,-3.004118 5.998962,-5.814064 8.591617,-9.085453 1.811742,-2.471307 1.38149,-6.796682 -1.688612,-8.059797 -0.586423,-0.246763 -1.219471,-0.385096 -1.85613,-0.393812 z"
       id="path832" />
    <path
       style="color:#000000;font-style:normal;font-variant:normal;font-weight:normal;font-stretch:normal;font-size:4.65666676px;line-height:1.25;font-family:'GE Inspira';-inkscape-font-specification:'GE Inspira';font-variant-ligatures:normal;font-variant-position:normal;font-variant-caps:normal;font-variant-numeric:normal;font-variant-alternates:normal;font-feature-settings:normal;text-indent:0;text-align:center;text-decoration:none;text-decoration-line:none;text-decoration-style:solid;text-decoration-color:#000000;letter-spacing:0.76993757px;word-spacing:0.63235414px;text-transform:none;writing-mode:lr-tb;direction:ltr;text-orientation:mixed;dominant-baseline:auto;baseline-shift:baseline;text-anchor:middle;white-space:normal;shape-padding:0;clip-rule:nonzero;display:inline;overflow:visible;visibility:visible;opacity:1;isolation:auto;mix-blend-mode:normal;color-interpolation:sRGB;color-interpolation-filters:linearRGB;solid-color:#000000;solid-opacity:1;vector-effect:none;fill:#ffc0c0;fill-opacity:0.76444447;fill-rule:nonzero;stroke:none;stroke-width:0.26458323;stroke-linecap:butt;stroke-linejoin:miter;stroke-miterlimit:4;stroke-dasharray:none;stroke-dashoffset:0;stroke-opacity:1;color-rendering:auto;image-rendering:auto;shape-rendering:auto;text-rendering:auto;enable-background:accumulate"
       d="m 8.995834,35.502186 c -0.337305,0 -0.638252,0.104773 -0.875415,0.312226 v 6.04e-4 c -0.237969,0.209979 -0.362771,0.500382 -0.362771,0.830819 0,0.202502 0.03866,0.383912 0.1237,0.537015 0.08147,0.146758 0.196837,0.269021 0.338981,0.360393 l 6.12e-4,6.14e-4 6.09e-4,6.08e-4 c 0.144669,0.09102 0.348221,0.169826 0.623851,0.250367 0.228135,0.06986 0.389104,0.131959 0.464464,0.17307 l 0.0016,6.02e-4 10e-4,6.09e-4 c 0.07677,0.03981 0.135234,0.09158 0.182571,0.16057 l 6.14e-4,6.09e-4 6.07e-4,0.0011 c 0.04246,0.05993 0.06652,0.136152 0.06652,0.24443 0,0.187014 -0.05253,0.309009 -0.161766,0.407371 -0.108321,0.09754 -0.251482,0.149273 -0.457925,0.149273 -0.25964,0 -0.492415,-0.08664 -0.717216,-0.271784 h -6.15e-4 c -0.06559,-0.05391 -0.142329,-0.09464 -0.232529,-0.09464 -0.08676,0 -0.167765,0.04698 -0.220634,0.104742 -0.05411,0.05757 -0.09106,0.138546 -0.09106,0.220638 0,0.10569 0.0559,0.191069 0.126075,0.261672 0.07005,0.07054 0.161995,0.134342 0.278326,0.20042 h 6.08e-4 l 6.13e-4,6.03e-4 c 0.2457,0.136502 0.534048,0.202202 0.856377,0.202202 0.352318,0 0.660794,-0.106938 0.897415,-0.321739 v -6.07e-4 c 0.239527,-0.21757 0.363968,-0.516541 0.363968,-0.858167 0,-0.276309 -0.08117,-0.524387 -0.244426,-0.720197 C 9.783552,37.443885 9.477562,37.299344 9.04176,37.175084 8.839225,37.117124 8.695726,37.063373 8.624865,37.02522 8.554215,36.98724 8.500516,36.93862 8.456563,36.876543 c -0.03558,-0.05398 -0.05778,-0.126561 -0.05778,-0.230747 0,-0.168619 0.04812,-0.280022 0.151655,-0.374074 0.102252,-0.09284 0.241476,-0.143327 0.44484,-0.143327 0.09966,0 0.19175,0.01465 0.278326,0.044 v 6.09e-4 h 6.04e-4 c 0.0806,0.02682 0.191492,0.08813 0.322934,0.18674 0.0323,0.02577 0.05776,0.04634 0.07486,0.05997 l 0.0057,0.0047 0.0062,0.0036 c 0.04792,0.03046 0.103202,0.04155 0.151652,0.04155 0.0816,0 0.16878,-0.03657 0.225989,-0.09693 0.05474,-0.05766 0.09158,-0.139683 0.09158,-0.222418 0,-0.102183 -0.05231,-0.186304 -0.118943,-0.255726 C 9.96769,35.82504 9.880945,35.763138 9.77132,35.699422 9.543913,35.566118 9.281255,35.500792 8.993437,35.500792 Z m 18.877281,0 c -0.506733,0 -0.936472,0.197767 -1.241758,0.577467 -0.302456,0.376644 -0.449597,0.867597 -0.449597,1.45109 0,0.571845 0.14802,1.05919 0.449005,1.441571 v 6.11e-4 c 0.303434,0.383584 0.733612,0.583412 1.24235,0.583412 0.507395,0 0.934913,-0.201969 1.234619,-0.587567 0.298753,-0.383848 0.445433,-0.869716 0.445433,-1.438014 0,-0.574947 -0.146481,-1.063475 -0.446032,-1.444546 -0.299829,-0.383631 -0.727055,-0.584009 -1.23402,-0.584009 z m -22.974237,0.02088 c -0.07611,0 -0.156623,0.02048 -0.219446,0.07316 -0.06275,0.05268 -0.097,0.129615 -0.108849,0.204577 L 4.452235,36.562037 H 4.076979 c -0.08598,0 -0.179534,0.02642 -0.243832,0.09464 l -0.0016,0.0016 -10e-4,0.0016 c -0.06198,0.06966 -0.08032,0.157666 -0.08032,0.242644 0,0.06567 0.02907,0.147821 0.08913,0.195657 0.06005,0.04781 0.128176,0.05832 0.190897,0.05832 H 4.354965 L 4.23781,37.901671 H 3.867898 c -0.08588,0 -0.179531,0.0264 -0.24383,0.09464 l -0.0016,0.0016 -10e-4,0.0016 c -0.06139,0.06904 -0.08032,0.157071 -0.08032,0.242047 0,0.06567 0.02875,0.147587 0.08852,0.195656 0.05985,0.04802 0.128421,0.05884 0.191496,0.05884 h 0.3259 l -0.112427,0.694624 -6.05e-4,0.0027 c -0.0019,0.01718 -0.0036,0.0361 -0.0036,0.05832 0,0.06632 0.02297,0.145615 0.08138,0.198636 0.05846,0.05297 0.131938,0.06846 0.196843,0.06846 0.07749,0 0.15966,-0.0207 0.223617,-0.07428 0.0637,-0.05368 0.09831,-0.131479 0.110007,-0.208149 v -6.09e-4 l 0.117759,-0.739822 h 0.484683 l -0.11059,0.695217 -6.07e-4,0.0021 c -0.0019,0.01718 -0.0036,0.0361 -0.0036,0.05832 0,0.06632 0.02297,0.145615 0.0814,0.198635 0.05846,0.05298 0.131941,0.06846 0.196851,0.06846 0.07749,0 0.159661,-0.0207 0.223609,-0.07429 0.06388,-0.05379 0.09838,-0.131909 0.110016,-0.208743 l 0.11767,-0.739739 h 0.380617 c 0.08308,0 0.173763,-0.02646 0.236098,-0.09271 l 0.0016,-0.0011 0.001,-0.0016 c 0.06136,-0.06904 0.08032,-0.157081 0.08032,-0.242046 0,-0.06384 -0.02423,-0.142743 -0.08197,-0.193282 -0.05804,-0.05064 -0.12812,-0.06355 -0.190308,-0.06355 H 5.957339 l 0.117159,-0.745172 h 0.374666 c 0.08308,0 0.173762,-0.02648 0.236097,-0.09271 l 0.0016,-0.0011 10e-4,-0.0016 c 0.06139,-0.06904 0.08032,-0.157077 0.08032,-0.242045 0,-0.0639 -0.02423,-0.142743 -0.08197,-0.193282 -0.05803,-0.05063 -0.128121,-0.06355 -0.190304,-0.06355 H 6.164054 l 0.113591,-0.71365 -0.0016,0.0078 c 0.0051,-0.02674 0.0073,-0.05179 0.0073,-0.07488 0,-0.06708 -0.02944,-0.150273 -0.09045,-0.199229 -0.06102,-0.04887 -0.130317,-0.05997 -0.195062,-0.05997 -0.07613,0 -0.156619,0.02043 -0.219451,0.07316 -0.06275,0.05268 -0.09697,0.129619 -0.108856,0.204581 L 5.551182,36.5613 H 5.065907 l 0.112416,-0.716036 v -0.0021 c 0.0023,-0.02083 0.0031,-0.03958 0.0031,-0.05581 0,-0.06694 -0.02573,-0.148395 -0.08555,-0.199827 -0.05981,-0.05141 -0.132075,-0.06487 -0.197443,-0.06487 z m 10.981909,0.0154 c -0.07188,0 -0.147106,0.02438 -0.204577,0.07071 -0.0401,0.03147 -0.04822,0.04948 -0.06488,0.07489 -0.01709,0.02612 -0.03448,0.0578 -0.05526,0.09568 -0.04143,0.07618 -0.09397,0.179513 -0.158195,0.31341 -0.177828,0.371496 -0.329879,0.724656 -0.455549,1.05918 v 6.07e-4 c -0.123925,0.332829 -0.276031,0.7927 -0.457925,1.382107 -0.0553,0.180135 -0.09714,0.324451 -0.125485,0.434734 -0.0285,0.110269 -0.04581,0.173677 -0.04581,0.248589 0,0.08252 0.03646,0.177787 0.1076,0.232529 0.07113,0.05477 0.153981,0.06846 0.237883,0.06846 0.06598,0 0.14004,-0.02332 0.192682,-0.07204 0.05256,-0.04846 0.08044,-0.111944 0.09464,-0.174846 0.03238,-0.131759 0.125706,-0.447473 0.245611,-0.841514 h 1.3714 c 0.117277,0.401028 0.206575,0.722322 0.228371,0.836755 l 6.08e-4,0.0047 0.0016,0.0047 c 0.01675,0.0627 0.04704,0.124504 0.100423,0.171275 0.05364,0.04688 0.126502,0.06958 0.192682,0.06958 0.08153,0 0.162677,-0.01396 0.232533,-0.06776 0.06982,-0.05405 0.10588,-0.147453 0.10588,-0.228367 0,-0.06422 -0.01291,-0.120072 -0.03379,-0.211718 -0.02107,-0.09164 -0.05166,-0.209927 -0.0921,-0.356825 -0.133268,-0.483981 -0.267633,-0.92288 -0.403213,-1.317286 -0.13599,-0.397384 -0.28651,-0.770598 -0.451383,-1.119834 h 6.1e-4 c -0.08142,-0.173499 -0.14605,-0.30689 -0.19447,-0.402032 -0.02431,-0.04757 -0.04454,-0.08531 -0.0619,-0.11537 -0.01734,-0.02993 -0.01674,-0.04344 -0.05997,-0.0839 -0.05764,-0.05376 -0.137904,-0.07785 -0.211123,-0.07785 z m 2.519192,0 c -0.08135,0 -0.167977,0.02054 -0.23372,0.08198 -0.06577,0.06171 -0.09158,0.151273 -0.09158,0.23253 0,0.332221 0.108834,0.70637 0.314007,1.129359 0.192313,0.396433 0.429989,0.717454 0.698785,0.986623 v 1.233428 c 0,0.08131 0.02505,0.171194 0.09046,0.233723 0.0655,0.06249 0.152577,0.08334 0.234314,0.08334 0.08031,0 0.167826,-0.02241 0.231346,-0.08555 0.06344,-0.06308 0.08631,-0.150801 0.08631,-0.23135 v -1.237017 c 0.279615,-0.274221 0.530073,-0.602714 0.739224,-1.009215 h -6.09e-4 c 0.223899,-0.433469 0.344336,-0.789983 0.344336,-1.092483 0,-0.08193 -0.02151,-0.170115 -0.08442,-0.235509 -0.06292,-0.06546 -0.152754,-0.08986 -0.234913,-0.08986 -0.07819,0 -0.160032,0.01699 -0.225988,0.07427 -0.07481,0.06523 -0.09175,0.151216 -0.09629,0.231938 v 6.1e-4 0.0011 c -0.0077,0.199019 -0.09313,0.477971 -0.26405,0.823078 -0.139082,0.280934 -0.314437,0.503159 -0.497174,0.713651 -0.177993,-0.212861 -0.34784,-0.433236 -0.471611,-0.696997 v -6.08e-4 c -0.150621,-0.324859 -0.221233,-0.602026 -0.221233,-0.827246 0,-0.08072 -0.02155,-0.168358 -0.08442,-0.232533 -0.06287,-0.06419 -0.151696,-0.08748 -0.232529,-0.08748 z m 3.923897,0 c -0.08121,0 -0.169346,0.02299 -0.233127,0.08688 -0.06367,0.06372 -0.0869,0.151827 -0.0869,0.233132 v 3.338694 c 0,0.08172 0.02205,0.169891 0.08555,0.234318 0.06349,0.06454 0.152723,0.088 0.234312,0.088 0.08196,0 0.171273,-0.02251 0.235503,-0.0869 0.06433,-0.06432 0.08691,-0.153432 0.08691,-0.235503 V 37.80547 h 1.58728 v 1.391622 c 0,0.08172 0.02206,0.169884 0.08555,0.234318 0.06349,0.06454 0.15272,0.088 0.23432,0.088 0.08196,0 0.171272,-0.02251 0.235505,-0.08691 0.0643,-0.06432 0.08687,-0.153437 0.08687,-0.235504 v -3.33869 c 0,-0.0815 -0.02353,-0.170745 -0.088,-0.234313 -0.06454,-0.06349 -0.152529,-0.08555 -0.23432,-0.08555 -0.08121,0 -0.169346,0.02295 -0.233123,0.08688 -0.06367,0.0637 -0.0869,0.151828 -0.0869,0.233133 v 1.310742 h -1.587303 v -1.310742 c 0,-0.08151 -0.0235,-0.170747 -0.088,-0.234319 -0.06454,-0.06349 -0.152529,-0.08555 -0.23432,-0.08555 z m 8.960492,0 c -0.117706,0 -0.235936,0.04709 -0.314602,0.133812 l -6.05e-4,0.0011 -0.0011,6.12e-4 c -0.07338,0.08393 -0.110592,0.195392 -0.110592,0.307465 v 3.220949 c 0,0.07982 0.0214,0.16638 0.0839,0.230149 0.06251,0.06366 0.150351,0.0869 0.230155,0.0869 0.07846,0 0.166126,-0.02497 0.22658,-0.08913 0.0605,-0.06445 0.08032,-0.148955 0.08032,-0.227774 v -2.525116 l 0.75647,1.421357 0.0047,0.0067 c 0.07937,0.114526 0.19734,0.201607 0.334229,0.201607 0.139073,0 0.2653,-0.09499 0.332446,-0.217665 v -6.07e-4 l 0.765983,-1.419568 v 2.532271 c 0,0.07789 0.01796,0.161131 0.07674,0.22599 0.05879,0.06493 0.147098,0.09106 0.224797,0.09106 0.08031,0 0.167969,-0.02222 0.231341,-0.08555 0.0633,-0.06331 0.08555,-0.15107 0.08555,-0.231339 v -3.220925 c 0,-0.112117 -0.03714,-0.223589 -0.110588,-0.307469 -0.07734,-0.08839 -0.196293,-0.135593 -0.314008,-0.135593 -0.160436,0 -0.315149,0.08742 -0.390129,0.226585 l -0.902175,1.669944 -0.899795,-1.66935 c -0.07491,-0.139396 -0.22959,-0.227179 -0.390131,-0.227179 z m -19.843088,0.01596 c -0.08192,0 -0.170254,0.02135 -0.235504,0.08442 -0.06534,0.06313 -0.08913,0.153024 -0.08913,0.234912 0,0.08132 0.02462,0.171036 0.08979,0.233718 0.06534,0.06263 0.152907,0.0839 0.234908,0.0839 h 0.737442 v 3.005662 c 0,0.08196 0.02251,0.171278 0.08689,0.235508 0.06432,0.06433 0.153435,0.0869 0.235506,0.0869 0.08153,0 0.170745,-0.02351 0.234315,-0.088 0.06349,-0.06454 0.08555,-0.152528 0.08555,-0.234315 v -3.005668 h 0.737432 c 0.08144,0 0.169101,-0.02161 0.233724,-0.08442 0.0647,-0.06282 0.08852,-0.151997 0.08852,-0.233133 0,-0.08154 -0.0233,-0.170894 -0.088,-0.234316 -0.0647,-0.06336 -0.152795,-0.08494 -0.234316,-0.08494 z m 24.941538,0 c -0.165818,0 -0.321169,0.05146 -0.418677,0.170684 h -6.07e-4 c -0.08635,0.106005 -0.125485,0.24342 -0.125485,0.389531 v 2.883752 c 0,0.141814 0.04448,0.277401 0.140949,0.371096 l 6.07e-4,6.13e-4 6.04e-4,6.02e-4 c 0.09698,0.09169 0.230984,0.13322 0.371697,0.133217 h 1.473098 c 0.08231,5e-6 0.172073,-0.0237 0.236098,-0.08852 0.06407,-0.06499 0.08635,-0.153542 0.08635,-0.236097 0,-0.08029 -0.02527,-0.16939 -0.09045,-0.230749 -0.06527,-0.06143 -0.151271,-0.08139 -0.231942,-0.08139 h -1.344635 v -1.095459 h 1.171577 c 0.07999,0 0.166009,-0.02002 0.230747,-0.08139 0.0648,-0.06151 0.08913,-0.150207 0.08913,-0.230155 0,-0.08171 -0.02206,-0.169887 -0.08555,-0.234318 -0.06349,-0.06452 -0.152721,-0.088 -0.234316,-0.088 h -1.171578 v -0.946182 h 1.344637 c 0.08144,0 0.169097,-0.02161 0.233725,-0.08442 0.0647,-0.06282 0.08852,-0.151997 0.08852,-0.233131 0,-0.08152 -0.02329,-0.17089 -0.088,-0.234312 -0.0647,-0.06336 -0.152797,-0.08494 -0.234317,-0.08494 z m -8.515056,0.573898 c 0.329641,0 0.562972,0.117362 0.751117,0.376451 v 6.08e-4 c 0.192581,0.263031 0.292599,0.599364 0.292599,1.025279 0,0.425908 -0.0999,0.761574 -0.292599,1.024686 v 6.08e-4 c -0.188145,0.259086 -0.421476,0.376453 -0.751117,0.376453 -0.322074,0 -0.555522,-0.116926 -0.749337,-0.375858 -0.193892,-0.263014 -0.294378,-0.598748 -0.294378,-1.025876 0,-0.429384 0.09924,-0.766202 0.289622,-1.027061 l 6.1e-4,-6.09e-4 c 0.18972,-0.257192 0.423993,-0.374668 0.753496,-0.374668 z M 15.893278,36.58803 c 0.170036,0.383655 0.329872,0.781543 0.46744,1.211426 h -0.955699 c 0.144654,-0.426847 0.31116,-0.825671 0.488259,-1.211426 z M 4.96905,37.156575 H 5.45909 L 5.341939,37.901744 H 4.851897 Z"
       id="path1014" />
  </g>
  <text
     xml:space="preserve"
     style="font-style:normal;font-variant:normal;font-weight:normal;font-stretch:normal;font-size:4.65666676px;line-height:1.25;font-family:Prata;-inkscape-font-specification:Prata;text-align:center;letter-spacing:0.76993757px;word-spacing:0.63235414px;text-anchor:middle;fill:#000000;fill-opacity:1;stroke:none;stroke-width:0.26458332"
     x="20.89609"
     y="44.404522"
     id="text927"><tspan
       id="tspan925"
       x="21.281057"
       y="44.404522"
       style="font-style:normal;font-variant:normal;font-weight:normal;font-stretch:normal;font-family:'GE Inspira';-inkscape-font-specification:'GE Inspira';text-align:center;letter-spacing:0.76993757px;word-spacing:0.63235414px;text-anchor:middle;stroke:#000000;stroke-width:0.26458332;stroke-opacity:1">#STAYHOME</tspan></text>
</svg>
